<svg xmlns="http://www.w3.org/2000/svg" xmlns:svg="http://www.w3.org/2000/svg" id="svg2" width="307.994" height="326.786" version="1.1" viewBox="0 0 230.995 245.089"><metadata id="metadata174"/><g id="graph0" class="graph" transform="translate(-340.79044,100.04688)"><title id="title5">G</title><g id="node9" class="node"><title id="title80">8</title><text id="text84" x="459" y="-81" font-family="Times, serif" font-size="14" text-anchor="middle"><tspan id="tspan3454" font-size="24">15</tspan></text></g><g id="edge8" class="edge" transform="translate(144,0)"><title id="title115">3-&gt;2v</title><path id="path117" fill="none" stroke="#000" d="m 300.43,-74.8345 c -10.18,9.8969 -23.954,23.2883 -35.461,34.4754"/><polygon id="polygon119" fill="#000" stroke="#000" points="262.526 -42.865 267.405 -37.846 267.405 -37.846 257.796 -33.385"/></g><text id="text140" x="388.6" y="-7.4" font-family="Times, serif" font-size="14" text-anchor="middle"><tspan id="tspan3456" font-size="24">9</tspan></text><text id="text161" x="526.2" y="-13.8" font-family="Times, serif" font-size="14" text-anchor="middle"><tspan id="tspan3463" font-size="24">20</tspan></text><g id="edge11" class="edge"><title id="title164">8-&gt;7</title><path id="path166" fill="none" stroke="#000" d="m 473.57,-74.8345 c 10.18,9.8969 23.954,23.2883 35.461,34.4754"/><polygon id="polygon168" fill="#000" stroke="#000" points="511.474 -42.865 516.204 -33.385 506.595 -37.846 511.474 -42.865"/></g><text id="text4421" x="347.418" y="67.961" font-family="Times, serif" font-size="14" text-anchor="middle"><tspan id="tspan3398" font-size="24">3</tspan></text><g id="g4431" class="edge" transform="matrix(-0.96592583,-0.25881905,-0.25881905,0.96592583,657.74278,143.35408)"><title id="title4433">3-&gt;2v</title><path id="path4435" fill="none" stroke="#000" d="m 295.10349,-71.171773 c -10.18,9.8969 -18.62749,19.625573 -30.13449,30.812673"/><polygon id="polygon4437" fill="#000" stroke="#000" points="267.405 -37.846 267.405 -37.846 257.796 -33.385 262.526 -42.865"/></g><g id="g4523" class="edge" transform="matrix(0.96592583,-0.25881905,0.25881905,0.96592583,116.22896,143.35408)"><title id="title4525">3-&gt;2v</title><path id="path4527" fill="none" stroke="#000" d="m 295.10349,-71.171773 c -10.18,9.8969 -18.62749,19.625573 -30.13449,30.812673"/><polygon id="polygon4529" fill="#000" stroke="#000" points="257.796 -33.385 262.526 -42.865 267.405 -37.846 267.405 -37.846"/></g><text id="text3400" x="423.8" y="67.8" font-family="Times, serif" font-size="14" text-anchor="middle"><tspan id="tspan3402" font-size="24">12</tspan></text><g id="g3404" class="edge" transform="matrix(-0.96592583,-0.25881905,-0.25881905,0.96592583,763.34278,218.55408)"><title id="title3406">3-&gt;2v</title><path id="path3408" fill="none" stroke="#000" d="m 295.10349,-71.171773 c -10.18,9.8969 -18.62749,19.625573 -30.13449,30.812673"/><polygon id="polygon3410" fill="#000" stroke="#000" points="267.405 -37.846 257.796 -33.385 262.526 -42.865 267.405 -37.846"/></g><g id="g3412" class="edge" transform="matrix(0.96592583,-0.25881905,0.25881905,0.96592583,253.82896,141.75408)"><title id="title3414">3-&gt;2v</title><path id="path3416" fill="none" stroke="#000" d="m 295.10349,-71.171773 c -10.18,9.8969 -18.62749,19.625573 -30.13449,30.812673"/><polygon id="polygon3418" fill="#000" stroke="#000" points="267.405 -37.846 267.405 -37.846 257.796 -33.385 262.526 -42.865"/></g><text id="text3420" x="489.818" y="66.361" font-family="Times, serif" font-size="14" text-anchor="middle"><tspan id="tspan3422" font-size="24">17</tspan></text><text id="text3388" x="528.218" y="141.561" font-family="Times, serif" font-size="14" text-anchor="middle"><tspan id="tspan3390" font-size="24">19</tspan></text></g></svg>