<svg xmlns="http://www.w3.org/2000/svg" xmlns:svg="http://www.w3.org/2000/svg" id="svg2" width="378.098" height="323.681" version="1.1" viewBox="0 0 283.574 242.761"><metadata id="metadata174"/><g id="graph0" class="graph" transform="translate(-300.53024,97.218758)"><title id="title5">G</title><g id="node9" class="node"><title id="title80">8</title><text id="text84" x="459" y="-81" font-family="Times, serif" font-size="14" text-anchor="middle"><tspan id="tspan3454" font-size="24">15</tspan></text></g><g id="edge8" class="edge" transform="translate(144,0)"><title id="title115">3-&gt;2v</title><path id="path117" fill="none" stroke="#000" d="m 300.43,-74.8345 c -10.18,9.8969 -23.954,23.2883 -35.461,34.4754"/><polygon id="polygon119" fill="#000" stroke="#000" points="257.796 -33.385 262.526 -42.865 267.405 -37.846 267.405 -37.846"/></g><text id="text140" x="388.6" y="-7.4" font-family="Times, serif" font-size="14" text-anchor="middle"><tspan id="tspan3456" font-size="24">9</tspan></text><text id="text161" x="527.8" y="-12.2" font-family="Times, serif" font-size="14" text-anchor="middle"><tspan id="tspan3463" font-size="24">20</tspan></text><g id="edge11" class="edge"><title id="title164">8-&gt;7</title><path id="path166" fill="none" stroke="#000" d="m 473.57,-74.8345 c 10.18,9.8969 23.954,23.2883 35.461,34.4754"/><polygon id="polygon168" fill="#000" stroke="#000" points="511.474 -42.865 511.474 -42.865 516.204 -33.385 506.595 -37.846"/></g><text id="text4421" x="347.418" y="67.961" font-family="Times, serif" font-size="14" text-anchor="middle"><tspan id="tspan3398" font-size="24">3</tspan></text><g id="g4431" class="edge" transform="matrix(-0.96592583,-0.25881905,-0.25881905,0.96592583,657.74278,143.35408)"><title id="title4433">3-&gt;2v</title><path id="path4435" fill="none" stroke="#000" d="m 295.10349,-71.171773 c -10.18,9.8969 -18.62749,19.625573 -30.13449,30.812673"/><polygon id="polygon4437" fill="#000" stroke="#000" points="262.526 -42.865 267.405 -37.846 267.405 -37.846 257.796 -33.385"/></g><g id="g4523" class="edge" transform="matrix(0.96592583,-0.25881905,0.25881905,0.96592583,116.22896,143.35408)"><title id="title4525">3-&gt;2v</title><path id="path4527" fill="none" stroke="#000" d="m 295.10349,-71.171773 c -10.18,9.8969 -18.62749,19.625573 -30.13449,30.812673"/><polygon id="polygon4529" fill="#000" stroke="#000" points="267.405 -37.846 257.796 -33.385 262.526 -42.865 267.405 -37.846"/></g><text id="text3400" x="423.8" y="67.8" font-family="Times, serif" font-size="14" text-anchor="middle"><tspan id="tspan3402" font-size="24">12</tspan></text><g id="g3404" class="edge" transform="matrix(-0.96592583,-0.25881905,-0.25881905,0.96592583,763.34278,218.55408)"><title id="title3406">3-&gt;2v</title><path id="path3408" fill="none" stroke="#000" d="m 295.10349,-71.171773 c -10.18,9.8969 -18.62749,19.625573 -30.13449,30.812673"/><polygon id="polygon3410" fill="#000" stroke="#000" points="267.405 -37.846 267.405 -37.846 257.796 -33.385 262.526 -42.865"/></g><g id="g3412" class="edge" transform="matrix(0.96592583,-0.25881905,0.25881905,0.96592583,253.82896,141.75408)"><title id="title3414">3-&gt;2v</title><path id="path3416" fill="none" stroke="#000" d="m 295.10349,-71.171773 c -10.18,9.8969 -18.62749,19.625573 -30.13449,30.812673"/><polygon id="polygon3418" fill="#000" stroke="#000" points="262.526 -42.865 267.405 -37.846 267.405 -37.846 257.796 -33.385"/></g><text id="text3420" x="489.818" y="66.361" font-family="Times, serif" font-size="14" text-anchor="middle"><tspan id="tspan3422" font-size="24">17</tspan></text><g id="g3430" fill="#00f" fill-opacity="1" stroke="#00f" stroke-opacity="1" class="edge" transform="matrix(-0.96592583,-0.25881905,-0.25881905,0.96592583,692.94278,220.15408)"><title id="title3432">3-&gt;2v</title><path id="path3434" fill="#00f" fill-opacity="1" stroke="#00f" stroke-opacity="1" d="m 295.10349,-71.171773 c -10.18,9.8969 -18.62749,19.625573 -30.13449,30.812673"/><polygon id="polygon3436" fill="#00f" fill-opacity="1" stroke="#00f" stroke-opacity="1" points="267.405 -37.846 257.796 -33.385 262.526 -42.865 267.405 -37.846"/></g><g id="g3438" fill="#00f" fill-opacity="1" stroke="#00f" stroke-opacity="1" class="edge" transform="matrix(0.96592583,-0.25881905,0.25881905,0.96592583,153.02896,220.15408)"><title id="title3440">3-&gt;2v</title><path id="path3442" fill="#00f" fill-opacity="1" stroke="#00f" stroke-opacity="1" d="m 295.10349,-71.171773 c -10.18,9.8969 -18.62749,19.625573 -30.13449,30.812673"/><polygon id="polygon3444" fill="#00f" fill-opacity="1" stroke="#00f" stroke-opacity="1" points="267.405 -37.846 267.405 -37.846 257.796 -33.385 262.526 -42.865"/></g><text id="text3446" x="384.218" y="144.761" fill="#00f" fill-opacity="1" stroke="#00f" stroke-opacity="1" font-family="Times, serif" font-size="14" text-anchor="middle"><tspan id="tspan3448" fill="#00f" fill-opacity="1" stroke="#00f" stroke-opacity="1" font-size="24">10</tspan></text><text id="text3450" x="459.418" y="144.761" fill="#00f" fill-opacity="1" stroke="#00f" stroke-opacity="1" font-family="Times, serif" font-size="14" text-anchor="middle"><tspan id="tspan3457" fill="#00f" fill-opacity="1" stroke="#00f" stroke-opacity="1" font-size="24">13</tspan></text><text id="text3388" x="528.218" y="141.561" font-family="Times, serif" font-size="14" text-anchor="middle"><tspan id="tspan3390" font-size="24">19</tspan></text><g id="g3387" fill="#00f" fill-opacity="1" stroke="#00f" stroke-opacity="1" class="edge" transform="matrix(-0.96592583,-0.25881905,-0.25881905,0.96592583,806.54278,143.35408)"><title id="title3389">3-&gt;2v</title><path id="path3391" fill="#00f" fill-opacity="1" stroke="#00f" stroke-opacity="1" d="m 295.10349,-71.171773 c -10.18,9.8969 -18.62749,19.625573 -30.13449,30.812673"/><polygon id="polygon3393" fill="#00f" fill-opacity="1" stroke="#00f" stroke-opacity="1" points="262.526 -42.865 267.405 -37.846 267.405 -37.846 257.796 -33.385"/></g><text id="text3395" x="572.6" y="67.8" fill="#00f" fill-opacity="1" stroke="#00f" stroke-opacity="1" font-family="Times, serif" font-size="14" text-anchor="middle"><tspan id="tspan3397" fill="#00f" fill-opacity="1" stroke="#00f" stroke-opacity="1" font-size="24">22</tspan></text><g id="g3399" fill="#00f" fill-opacity="1" stroke="#00f" stroke-opacity="1" class="edge" transform="matrix(0.96592583,-0.25881905,0.25881905,0.96592583,73.02896,220.15408)"><title id="title3401">3-&gt;2v</title><path id="path3403" fill="#00f" fill-opacity="1" stroke="#00f" stroke-opacity="1" d="m 295.10349,-71.171773 c -10.18,9.8969 -18.62749,19.625573 -30.13449,30.812673"/><polygon id="polygon3405" fill="#00f" fill-opacity="1" stroke="#00f" stroke-opacity="1" points="267.405 -37.846 257.796 -33.385 262.526 -42.865 267.405 -37.846"/></g><text id="text3407" x="304.218" y="144.761" fill="#00f" fill-opacity="1" stroke="#00f" stroke-opacity="1" font-family="Times, serif" font-size="14" text-anchor="middle"><tspan id="tspan3409" fill="#00f" fill-opacity="1" stroke="#00f" stroke-opacity="1" font-size="24">1</tspan></text></g></svg>