<svg xmlns="http://www.w3.org/2000/svg" xmlns:svg="http://www.w3.org/2000/svg" id="svg2" width="307.994" height="326.786" version="1.1" viewBox="0 0 230.995 245.089"><metadata id="metadata174"/><g id="graph0" class="graph" transform="translate(-340.79044,100.04688)"><title id="title5">G</title><g id="node9" class="node"><title id="title80">8</title><text id="text84" x="459" y="-81" font-family="Times, serif" font-size="14" text-anchor="middle"><tspan id="tspan3454" font-size="32">+</tspan></text></g><g id="edge8" class="edge" transform="translate(144,0)"><title id="title115">3-&gt;2v</title><path id="path117" fill="none" stroke="#000" d="m 300.43,-74.8345 c -10.18,9.8969 -23.954,23.2883 -35.461,34.4754"/><polygon id="polygon119" fill="#000" stroke="#000" points="262.526 -42.865 267.405 -37.846 267.405 -37.846 257.796 -33.385"/></g><text id="text140" x="387" y="-2.6" font-family="Times, serif" font-size="14" text-anchor="middle"><tspan id="tspan3456" font-size="32">*</tspan></text><text id="text161" x="526.2" y="-13.8" font-family="Times, serif" font-size="14" text-anchor="middle"><tspan id="tspan3463" font-size="32">∕</tspan></text><g id="edge11" class="edge"><title id="title164">8-&gt;7</title><path id="path166" fill="none" stroke="#000" d="m 473.57,-74.8345 c 10.18,9.8969 23.954,23.2883 35.461,34.4754"/><polygon id="polygon168" fill="#000" stroke="#000" points="511.474 -42.865 516.204 -33.385 506.595 -37.846 511.474 -42.865"/></g><text id="text4421" x="345.818" y="67.961" font-family="Times, serif" font-size="14" text-anchor="middle"><tspan id="tspan3398" font-size="24">3</tspan></text><g id="g4431" class="edge" transform="matrix(-0.96592583,-0.25881905,-0.25881905,0.96592583,665.74278,143.35408)"><title id="title4433">3-&gt;2v</title><path id="path4435" fill="none" stroke="#000" d="m 295.10349,-71.171773 c -10.18,9.8969 -18.62749,19.625573 -30.13449,30.812673"/><polygon id="polygon4437" fill="#000" stroke="#000" points="262.526 -42.865 267.405 -37.846 267.405 -37.846 257.796 -33.385"/></g><g id="g4523" class="edge" transform="matrix(0.96592583,-0.25881905,0.25881905,0.96592583,109.82896,143.35408)"><title id="title4525">3-&gt;2v</title><path id="path4527" fill="none" stroke="#000" d="m 295.10349,-71.171773 c -10.18,9.8969 -18.62749,19.625573 -30.13449,30.812673"/><polygon id="polygon4529" fill="#000" stroke="#000" points="257.796 -33.385 262.526 -42.865 267.405 -37.846 267.405 -37.846"/></g><text id="text3400" x="428.6" y="67.8" font-family="Times, serif" font-size="14" text-anchor="middle"><tspan id="tspan3402" font-size="32">-</tspan></text><g id="g3404" class="edge" transform="matrix(-0.96592583,-0.25881905,-0.25881905,0.96592583,803.34278,143.35408)"><title id="title3406">3-&gt;2v</title><path id="path3408" fill="none" stroke="#000" d="m 295.10349,-71.171773 c -10.18,9.8969 -18.62749,19.625573 -30.13449,30.812673"/><polygon id="polygon3410" fill="#000" stroke="#000" points="267.405 -37.846 267.405 -37.846 257.796 -33.385 262.526 -42.865"/></g><g id="g3412" class="edge" transform="matrix(0.96592583,-0.25881905,0.25881905,0.96592583,247.42896,143.35408)"><title id="title3414">3-&gt;2v</title><path id="path3416" fill="none" stroke="#000" d="m 295.10349,-71.171773 c -10.18,9.8969 -18.62749,19.625573 -30.13449,30.812673"/><polygon id="polygon3418" fill="#000" stroke="#000" points="262.526 -42.865 267.405 -37.846 267.405 -37.846 257.796 -33.385"/></g><text id="text3420" x="485.018" y="67.961" font-family="Times, serif" font-size="14" text-anchor="middle"><tspan id="tspan3422" font-size="24">5</tspan></text><text id="text3424" x="566.618" y="67.961" font-family="Times, serif" font-size="14" text-anchor="middle"><tspan id="tspan3426" font-size="24">4</tspan></text><g id="g3430" class="edge" transform="matrix(-0.96592583,-0.25881905,-0.25881905,0.96592583,702.54278,220.15408)"><title id="title3432">3-&gt;2v</title><path id="path3434" fill="none" stroke="#000" d="m 295.10349,-71.171773 c -10.18,9.8969 -18.62749,19.625573 -30.13449,30.812673"/><polygon id="polygon3436" fill="#000" stroke="#000" points="267.405 -37.846 267.405 -37.846 257.796 -33.385 262.526 -42.865"/></g><g id="g3438" class="edge" transform="matrix(0.96592583,-0.25881905,0.25881905,0.96592583,153.02896,220.15408)"><title id="title3440">3-&gt;2v</title><path id="path3442" fill="none" stroke="#000" d="m 295.10349,-71.171773 c -10.18,9.8969 -18.62749,19.625573 -30.13449,30.812673"/><polygon id="polygon3444" fill="#000" stroke="#000" points="262.526 -42.865 267.405 -37.846 267.405 -37.846 257.796 -33.385"/></g><text id="text3446" x="389.018" y="144.761" font-family="Times, serif" font-size="14" text-anchor="middle"><tspan id="tspan3448" font-size="24">1</tspan></text><text id="text3450" x="465.818" y="144.761" font-family="Times, serif" font-size="14" text-anchor="middle"><tspan id="tspan3457" font-size="24">8</tspan></text></g></svg>