<svg xmlns="http://www.w3.org/2000/svg" xmlns:osb="http://www.openswatchbook.org/uri/2009/osb" xmlns:svg="http://www.w3.org/2000/svg" xmlns:xlink="http://www.w3.org/1999/xlink" id="svg2" width="55.81" height="50.964" fill="#000" fill-opacity="1" stroke="#000" stroke-dasharray="none" stroke-dashoffset="0" stroke-linecap="square" stroke-linejoin="miter" stroke-miterlimit="10" stroke-opacity="1" stroke-width="1" color-interpolation="auto" color-rendering="auto" font-family="Dialog" font-size="12" font-style="normal" font-weight="normal" image-rendering="auto" shape-rendering="auto" text-rendering="auto" version="1.1"><metadata id="metadata86"/><defs id="genericDefs"><linearGradient id="linearGradient6474" osb:paint="gradient"><stop id="stop6476" offset="0" stop-color="#000" stop-opacity="1"/><stop id="stop6478" offset="1" stop-color="#000" stop-opacity="0"/></linearGradient><linearGradient id="linearGradient6466"><stop id="stop6468" offset="0" stop-color="#0c0a0c" stop-opacity="1"/><stop id="stop6470" offset="1" stop-color="#0c0a0c" stop-opacity="0"/></linearGradient><linearGradient id="linearGradient6322" osb:paint="solid"><stop id="stop6324" offset="0" stop-color="#000" stop-opacity="1"/></linearGradient><defs id="defs1"><clipPath id="clipPath1" clipPathUnits="userSpaceOnUse"><path id="path9" d="M 0,0 414,0 414,178 0,178 0,0 Z"/></clipPath><clipPath id="clipPath2" clipPathUnits="userSpaceOnUse"><path id="path12" d="m -543,-360 414,0 0,178 -414,0 0,-178 z"/></clipPath></defs><clipPath id="clipPath2-3" clipPathUnits="userSpaceOnUse"><path id="path12-3" d="m -543,-360 414,0 0,178 -414,0 0,-178 z"/></clipPath><clipPath id="clipPath3826" clipPathUnits="userSpaceOnUse"><path id="path3828" d="m -543,-360 414,0 0,178 -414,0 0,-178 z"/></clipPath><clipPath id="clipPath2-4" clipPathUnits="userSpaceOnUse"><path id="path12-7" d="m -543,-360 414,0 0,178 -414,0 0,-178 z"/></clipPath><linearGradient id="linearGradient6472" x1="12.585" x2="27.751" y1="112.62" y2="112.62" gradientUnits="userSpaceOnUse" xlink:href="#linearGradient6466"/><linearGradient id="linearGradient6496" x1="12.585" x2="27.751" y1="112.62" y2="112.62" gradientUnits="userSpaceOnUse" xlink:href="#linearGradient6466"/><linearGradient id="linearGradient6498" x1="12.585" x2="27.751" y1="112.62" y2="112.62" gradientUnits="userSpaceOnUse" xlink:href="#linearGradient6466"/><clipPath id="clipPath2-38" clipPathUnits="userSpaceOnUse"><path id="path12-6" d="m -543,-360 414,0 0,178 -414,0 0,-178 z"/></clipPath><clipPath id="clipPath6727" clipPathUnits="userSpaceOnUse"><path id="path6729" d="m -543,-360 414,0 0,178 -414,0 0,-178 z"/></clipPath><clipPath id="clipPath2-2" clipPathUnits="userSpaceOnUse"><path id="path12-0" d="m -543,-360 414,0 0,178 -414,0 0,-178 z"/></clipPath><clipPath id="clipPath2-8" clipPathUnits="userSpaceOnUse"><path id="path12-62" d="m -543,-360 414,0 0,178 -414,0 0,-178 z"/></clipPath><clipPath id="clipPath6789" clipPathUnits="userSpaceOnUse"><path id="path6791" d="m -543,-360 414,0 0,178 -414,0 0,-178 z"/></clipPath><clipPath id="clipPath2-5" clipPathUnits="userSpaceOnUse"><path id="path12-9" d="m -543,-360 414,0 0,178 -414,0 0,-178 z"/></clipPath><clipPath id="clipPath2-4-9" clipPathUnits="userSpaceOnUse"><path id="path12-7-7" d="m -543,-360 414,0 0,178 -414,0 0,-178 z"/></clipPath><clipPath id="clipPath2-3-7" clipPathUnits="userSpaceOnUse"><path id="path12-3-5" d="m -543,-360 414,0 0,178 -414,0 0,-178 z"/></clipPath><clipPath id="clipPath3075" clipPathUnits="userSpaceOnUse"><path id="path3077" d="m -543,-360 414,0 0,178 -414,0 0,-178 z"/></clipPath><clipPath id="clipPath2-44" clipPathUnits="userSpaceOnUse"><path id="path12-65" d="m -543,-360 414,0 0,178 -414,0 0,-178 z"/></clipPath><clipPath id="clipPath3081" clipPathUnits="userSpaceOnUse"><path id="path3083" d="m -543,-360 414,0 0,178 -414,0 0,-178 z"/></clipPath><clipPath id="clipPath3085" clipPathUnits="userSpaceOnUse"><path id="path3087" d="m -543,-360 414,0 0,178 -414,0 0,-178 z"/></clipPath><clipPath id="clipPath3089" clipPathUnits="userSpaceOnUse"><path id="path3091" d="m -543,-360 414,0 0,178 -414,0 0,-178 z"/></clipPath><clipPath id="clipPath3093" clipPathUnits="userSpaceOnUse"><path id="path3095" d="m -543,-360 414,0 0,178 -414,0 0,-178 z"/></clipPath><clipPath id="clipPath3097" clipPathUnits="userSpaceOnUse"><path id="path3099" d="m -543,-360 414,0 0,178 -414,0 0,-178 z"/></clipPath><clipPath id="clipPath3101" clipPathUnits="userSpaceOnUse"><path id="path3103" d="m -543,-360 414,0 0,178 -414,0 0,-178 z"/></clipPath><clipPath id="clipPath3105" clipPathUnits="userSpaceOnUse"><path id="path3107" d="m -543,-360 414,0 0,178 -414,0 0,-178 z"/></clipPath><clipPath id="clipPath3109" clipPathUnits="userSpaceOnUse"><path id="path3111" d="m -543,-360 414,0 0,178 -414,0 0,-178 z"/></clipPath><clipPath id="clipPath3113" clipPathUnits="userSpaceOnUse"><path id="path3115" d="m -543,-360 414,0 0,178 -414,0 0,-178 z"/></clipPath><clipPath id="clipPath3117" clipPathUnits="userSpaceOnUse"><path id="path3119" d="m -543,-360 414,0 0,178 -414,0 0,-178 z"/></clipPath><clipPath id="clipPath3121" clipPathUnits="userSpaceOnUse"><path id="path3123" d="m -543,-360 414,0 0,178 -414,0 0,-178 z"/></clipPath><clipPath id="clipPath3125" clipPathUnits="userSpaceOnUse"><path id="path3127" d="m -543,-360 414,0 0,178 -414,0 0,-178 z"/></clipPath><clipPath id="clipPath3129" clipPathUnits="userSpaceOnUse"><path id="path3131" d="m -543,-360 414,0 0,178 -414,0 0,-178 z"/></clipPath><clipPath id="clipPath3133" clipPathUnits="userSpaceOnUse"><path id="path3135" d="m -543,-360 414,0 0,178 -414,0 0,-178 z"/></clipPath><clipPath id="clipPath3137" clipPathUnits="userSpaceOnUse"><path id="path3139" d="m -543,-360 414,0 0,178 -414,0 0,-178 z"/></clipPath><clipPath id="clipPath3141" clipPathUnits="userSpaceOnUse"><path id="path3143" d="m -543,-360 414,0 0,178 -414,0 0,-178 z"/></clipPath><clipPath id="clipPath3145" clipPathUnits="userSpaceOnUse"><path id="path3147" d="m -543,-360 414,0 0,178 -414,0 0,-178 z"/></clipPath><clipPath id="clipPath3149" clipPathUnits="userSpaceOnUse"><path id="path3151" d="m -543,-360 414,0 0,178 -414,0 0,-178 z"/></clipPath><clipPath id="clipPath3153" clipPathUnits="userSpaceOnUse"><path id="path3155" d="m -543,-360 414,0 0,178 -414,0 0,-178 z"/></clipPath><clipPath id="clipPath3157" clipPathUnits="userSpaceOnUse"><path id="path3159" d="m -543,-360 414,0 0,178 -414,0 0,-178 z"/></clipPath><clipPath id="clipPath3161" clipPathUnits="userSpaceOnUse"><path id="path3163" d="m -543,-360 414,0 0,178 -414,0 0,-178 z"/></clipPath></defs><text id="text10613-2-7-8-4-4" x="-229.275" y="28.239" fill="#000" fill-opacity="1" stroke="none" font-family="Arial" font-size="9.854" font-stretch="normal" font-style="normal" font-variant="normal" font-weight="normal" text-anchor="start" transform="scale(1.0007779,0.9992227)" writing-mode="lr-tb" xml:space="preserve" style="line-height:100%;-inkscape-font-specification:Arial;text-align:start"><tspan id="tspan3224" x="-229.275" y="28.239" font-family="Bitstream Vera Sans" font-size="14" font-stretch="normal" font-style="normal" font-variant="normal" font-weight="normal" style="-inkscape-font-specification:'Bitstream Vera Sans'">L1: POJO</tspan></text><g id="g3116" transform="matrix(0.40637089,0,0,0.40637089,-125.02174,18.079742)"><g id="g1615" transform="translate(298.17258,-54.003876)"><path id="path1616" fill="#fff" stroke="#000" stroke-width="2" d="m 12.473,121.082 c -0.913967,1.76129 -1.9912,3.408 -1.9913,5.341 l 0.009,0.80788 c 0,4.172 3.265872,6.69412 7.020572,6.69412 l 121.319698,0 c 3.755,0 6.98886,-3.12652 6.98886,-7.29852 L 145.78,125.815 c 0,-1.933 -0.95029,-3.61152 -1.991,-5.341 L 83.7056,12.6938 C 81.051,9.74423 76.7473,9.74423 74.0923,12.6942 L 12.473,121.082 Z"/><path id="path1617" fill="#fc0" stroke="#000" stroke-linecap="round" stroke-linejoin="round" stroke-width="4.852" d="m 78.703,16.2915 -63.4233,111.8365 61.187,0 2.8521,0 60.5072,0 -60.3105,-111.8365 -0.8125,0 z"/></g><g id="g1618" transform="translate(298.17258,-54.003876)"><path id="path1619" fill="#000" stroke="none" d="m 84.366054,45.1579 c 0.92385,0.9815 1.103746,1.21235 1.565646,3.0022 0.4619,1.78985 1.474117,5.308987 0.359892,9.302446 -0.462,6.9284 -0.161742,13.505426 -0.435017,20.516837 C 85.583663,84.98149 87.3174,93.426 79.2341,95.0426 77.1556,95.2736 75.0771,93.8879 74.2688,91.9248 72.8831,77.837 71.4975,64.442 70.1117,50.7006 c 1.1547,-3.5797 4.0415,-7.0439 7.5058,-7.5058 3.4643,-0.4619 5.824704,0.9816 6.748554,1.9631 z"/><path id="path1620" fill="#000" stroke="none" d="m 83.1603,103.357 c 3.2333,1.963 3.8106,5.543 3.8106,9.122 -1.3857,3.465 -2.8868,7.506 -7.3903,7.506 -2.7714,-0.115 -5.4273,-0.693 -7.2749,-2.771 -1.1547,-4.157 -3.8106,-8.43 0,-11.894 2.8869,-4.042 6.9284,-3.002 10.8546,-1.963 z"/></g></g><g id="g3448" transform="matrix(0.40637089,0,0,0.40637089,-125.02174,18.079742)"><g id="g3450" transform="translate(298.17258,-54.003876)"><path id="path3452" fill="#fff" stroke="#000" stroke-width="2" d="m 12.473,121.082 c -0.913967,1.76129 -1.9912,3.408 -1.9913,5.341 l 0.009,0.80788 c 0,4.172 3.265872,6.69412 7.020572,6.69412 l 121.319698,0 c 3.755,0 6.98886,-3.12652 6.98886,-7.29852 L 145.78,125.815 c 0,-1.933 -0.95029,-3.61152 -1.991,-5.341 L 83.7056,12.6938 C 81.051,9.74423 76.7473,9.74423 74.0923,12.6942 L 12.473,121.082 Z"/><path id="path3454" fill="#fc0" stroke="#000" stroke-linecap="round" stroke-linejoin="round" stroke-width="4.852" d="m 78.703,16.2915 -63.4233,111.8365 61.187,0 2.8521,0 60.5072,0 -60.3105,-111.8365 -0.8125,0 z"/></g><g id="g3456" transform="translate(298.17258,-54.003876)"><path id="path3458" fill="#000" stroke="none" d="m 84.366054,45.1579 c 0.92385,0.9815 1.103746,1.21235 1.565646,3.0022 0.4619,1.78985 1.474117,5.308987 0.359892,9.302446 -0.462,6.9284 -0.161742,13.505426 -0.435017,20.516837 C 85.583663,84.98149 87.3174,93.426 79.2341,95.0426 77.1556,95.2736 75.0771,93.8879 74.2688,91.9248 72.8831,77.837 71.4975,64.442 70.1117,50.7006 c 1.1547,-3.5797 4.0415,-7.0439 7.5058,-7.5058 3.4643,-0.4619 5.824704,0.9816 6.748554,1.9631 z"/><path id="path3460" fill="#000" stroke="none" d="m 83.1603,103.357 c 3.2333,1.963 3.8106,5.543 3.8106,9.122 -1.3857,3.465 -2.8868,7.506 -7.3903,7.506 -2.7714,-0.115 -5.4273,-0.693 -7.2749,-2.771 -1.1547,-4.157 -3.8106,-8.43 0,-11.894 2.8869,-4.042 6.9284,-3.002 10.8546,-1.963 z"/></g></g></svg>