<svg xmlns="http://www.w3.org/2000/svg" xmlns:osb="http://www.openswatchbook.org/uri/2009/osb" xmlns:svg="http://www.w3.org/2000/svg" xmlns:xlink="http://www.w3.org/1999/xlink" id="svg2" width="61.432" height="59.833" fill="#000" fill-opacity="1" stroke="#000" stroke-dasharray="none" stroke-dashoffset="0" stroke-linecap="square" stroke-linejoin="miter" stroke-miterlimit="10" stroke-opacity="1" stroke-width="1" color-interpolation="auto" color-rendering="auto" font-family="Dialog" font-size="12" font-style="normal" font-weight="normal" image-rendering="auto" shape-rendering="auto" text-rendering="auto" version="1.1"><metadata id="metadata86"/><defs id="genericDefs"><marker id="Arrow2Send" orient="auto" overflow="visible" refX="0" refY="0"><path id="path4035" fill-rule="evenodd" stroke-linejoin="round" stroke-width=".625" d="M 8.7185878,4.0337352 -2.2072895,0.01601326 8.7185884,-4.0017078 c -1.7454984,2.3720609 -1.7354408,5.6174519 -6e-7,8.035443 z" font-size="12" transform="matrix(-0.3,0,0,-0.3,0.69,0)"/></marker><marker id="SquareS" orient="auto" overflow="visible" refX="0" refY="0"><path id="path4079" fill-rule="evenodd" stroke="#000" stroke-width="1pt" marker-start="none" d="M -5,-5 -5,5 5,5 5,-5 -5,-5 Z" transform="scale(0.2,0.2)"/></marker><marker id="DiamondL" orient="auto" overflow="visible" refX="0" refY="0"><path id="path4082" fill-rule="evenodd" stroke="#000" stroke-width="1pt" marker-start="none" d="M 0,-7.0710768 -7.0710894,0 0,7.0710589 7.0710462,0 0,-7.0710768 Z" transform="scale(0.8,0.8)"/></marker><marker id="Arrow2Lend" orient="auto" overflow="visible" refX="0" refY="0"><path id="path4023" fill-rule="evenodd" stroke-linejoin="round" stroke-width=".625" d="M 8.7185878,4.0337352 -2.2072895,0.01601326 8.7185884,-4.0017078 c -1.7454984,2.3720609 -1.7354408,5.6174519 -6e-7,8.035443 z" font-size="12" transform="matrix(-1.1,0,0,-1.1,-1.1,0)"/></marker><marker id="Arrow1Lstart" orient="auto" overflow="visible" refX="0" refY="0"><path id="path4002" fill-rule="evenodd" stroke="#000" stroke-width="1pt" marker-start="none" d="M 0,0 5,-5 -12.5,0 5,5 0,0 Z" transform="matrix(0.8,0,0,0.8,10,0)"/></marker><linearGradient id="linearGradient6474" osb:paint="gradient"><stop id="stop6476" offset="0" stop-color="#000" stop-opacity="1"/><stop id="stop6478" offset="1" stop-color="#000" stop-opacity="0"/></linearGradient><linearGradient id="linearGradient6466"><stop id="stop6468" offset="0" stop-color="#0c0a0c" stop-opacity="1"/><stop id="stop6470" offset="1" stop-color="#0c0a0c" stop-opacity="0"/></linearGradient><linearGradient id="linearGradient6322" osb:paint="solid"><stop id="stop6324" offset="0" stop-color="#000" stop-opacity="1"/></linearGradient><defs id="defs1"><clipPath id="clipPath1" clipPathUnits="userSpaceOnUse"><path id="path9" d="M 0,0 414,0 414,178 0,178 0,0 Z"/></clipPath><clipPath id="clipPath2" clipPathUnits="userSpaceOnUse"><path id="path12" d="m -543,-360 414,0 0,178 -414,0 0,-178 z"/></clipPath></defs><clipPath id="clipPath2-3" clipPathUnits="userSpaceOnUse"><path id="path12-3" d="m -543,-360 414,0 0,178 -414,0 0,-178 z"/></clipPath><clipPath id="clipPath3826" clipPathUnits="userSpaceOnUse"><path id="path3828" d="m -543,-360 414,0 0,178 -414,0 0,-178 z"/></clipPath><clipPath id="clipPath2-4" clipPathUnits="userSpaceOnUse"><path id="path12-7" d="m -543,-360 414,0 0,178 -414,0 0,-178 z"/></clipPath><linearGradient id="linearGradient6472" x1="12.585" x2="27.751" y1="112.62" y2="112.62" gradientUnits="userSpaceOnUse" xlink:href="#linearGradient6466"/><linearGradient id="linearGradient6496" x1="12.585" x2="27.751" y1="112.62" y2="112.62" gradientUnits="userSpaceOnUse" xlink:href="#linearGradient6466"/><linearGradient id="linearGradient6498" x1="12.585" x2="27.751" y1="112.62" y2="112.62" gradientUnits="userSpaceOnUse" xlink:href="#linearGradient6466"/><clipPath id="clipPath2-38" clipPathUnits="userSpaceOnUse"><path id="path12-6" d="m -543,-360 414,0 0,178 -414,0 0,-178 z"/></clipPath><clipPath id="clipPath6727" clipPathUnits="userSpaceOnUse"><path id="path6729" d="m -543,-360 414,0 0,178 -414,0 0,-178 z"/></clipPath><clipPath id="clipPath2-2" clipPathUnits="userSpaceOnUse"><path id="path12-0" d="m -543,-360 414,0 0,178 -414,0 0,-178 z"/></clipPath><clipPath id="clipPath2-8" clipPathUnits="userSpaceOnUse"><path id="path12-62" d="m -543,-360 414,0 0,178 -414,0 0,-178 z"/></clipPath><clipPath id="clipPath6789" clipPathUnits="userSpaceOnUse"><path id="path6791" d="m -543,-360 414,0 0,178 -414,0 0,-178 z"/></clipPath><clipPath id="clipPath2-5" clipPathUnits="userSpaceOnUse"><path id="path12-9" d="m -543,-360 414,0 0,178 -414,0 0,-178 z"/></clipPath><clipPath id="clipPath2-4-9" clipPathUnits="userSpaceOnUse"><path id="path12-7-7" d="m -543,-360 414,0 0,178 -414,0 0,-178 z"/></clipPath><clipPath id="clipPath2-3-7" clipPathUnits="userSpaceOnUse"><path id="path12-3-5" d="m -543,-360 414,0 0,178 -414,0 0,-178 z"/></clipPath><clipPath id="clipPath3075" clipPathUnits="userSpaceOnUse"><path id="path3077" d="m -543,-360 414,0 0,178 -414,0 0,-178 z"/></clipPath><clipPath id="clipPath2-44" clipPathUnits="userSpaceOnUse"><path id="path12-65" d="m -543,-360 414,0 0,178 -414,0 0,-178 z"/></clipPath><clipPath id="clipPath3081" clipPathUnits="userSpaceOnUse"><path id="path3083" d="m -543,-360 414,0 0,178 -414,0 0,-178 z"/></clipPath><clipPath id="clipPath3085" clipPathUnits="userSpaceOnUse"><path id="path3087" d="m -543,-360 414,0 0,178 -414,0 0,-178 z"/></clipPath><clipPath id="clipPath3089" clipPathUnits="userSpaceOnUse"><path id="path3091" d="m -543,-360 414,0 0,178 -414,0 0,-178 z"/></clipPath><clipPath id="clipPath3093" clipPathUnits="userSpaceOnUse"><path id="path3095" d="m -543,-360 414,0 0,178 -414,0 0,-178 z"/></clipPath><clipPath id="clipPath3097" clipPathUnits="userSpaceOnUse"><path id="path3099" d="m -543,-360 414,0 0,178 -414,0 0,-178 z"/></clipPath><clipPath id="clipPath3101" clipPathUnits="userSpaceOnUse"><path id="path3103" d="m -543,-360 414,0 0,178 -414,0 0,-178 z"/></clipPath><clipPath id="clipPath3105" clipPathUnits="userSpaceOnUse"><path id="path3107" d="m -543,-360 414,0 0,178 -414,0 0,-178 z"/></clipPath><clipPath id="clipPath3109" clipPathUnits="userSpaceOnUse"><path id="path3111" d="m -543,-360 414,0 0,178 -414,0 0,-178 z"/></clipPath><clipPath id="clipPath3113" clipPathUnits="userSpaceOnUse"><path id="path3115" d="m -543,-360 414,0 0,178 -414,0 0,-178 z"/></clipPath><clipPath id="clipPath3117" clipPathUnits="userSpaceOnUse"><path id="path3119" d="m -543,-360 414,0 0,178 -414,0 0,-178 z"/></clipPath><clipPath id="clipPath3121" clipPathUnits="userSpaceOnUse"><path id="path3123" d="m -543,-360 414,0 0,178 -414,0 0,-178 z"/></clipPath><clipPath id="clipPath3125" clipPathUnits="userSpaceOnUse"><path id="path3127" d="m -543,-360 414,0 0,178 -414,0 0,-178 z"/></clipPath><clipPath id="clipPath3129" clipPathUnits="userSpaceOnUse"><path id="path3131" d="m -543,-360 414,0 0,178 -414,0 0,-178 z"/></clipPath><clipPath id="clipPath3133" clipPathUnits="userSpaceOnUse"><path id="path3135" d="m -543,-360 414,0 0,178 -414,0 0,-178 z"/></clipPath><clipPath id="clipPath3137" clipPathUnits="userSpaceOnUse"><path id="path3139" d="m -543,-360 414,0 0,178 -414,0 0,-178 z"/></clipPath><clipPath id="clipPath3141" clipPathUnits="userSpaceOnUse"><path id="path3143" d="m -543,-360 414,0 0,178 -414,0 0,-178 z"/></clipPath><clipPath id="clipPath3145" clipPathUnits="userSpaceOnUse"><path id="path3147" d="m -543,-360 414,0 0,178 -414,0 0,-178 z"/></clipPath><clipPath id="clipPath3149" clipPathUnits="userSpaceOnUse"><path id="path3151" d="m -543,-360 414,0 0,178 -414,0 0,-178 z"/></clipPath><clipPath id="clipPath3153" clipPathUnits="userSpaceOnUse"><path id="path3155" d="m -543,-360 414,0 0,178 -414,0 0,-178 z"/></clipPath><clipPath id="clipPath3157" clipPathUnits="userSpaceOnUse"><path id="path3159" d="m -543,-360 414,0 0,178 -414,0 0,-178 z"/></clipPath><clipPath id="clipPath3161" clipPathUnits="userSpaceOnUse"><path id="path3163" d="m -543,-360 414,0 0,178 -414,0 0,-178 z"/></clipPath><linearGradient id="linearGradient51" xlink:href="#linearGradient53"/><linearGradient id="linearGradient53"><stop id="stop54" offset="0" stop-color="#faff00" stop-opacity="1"/><stop id="stop55" offset="1" stop-color="#026d00" stop-opacity="1"/></linearGradient><linearGradient id="linearGradient3015" x1="3.011" x2="426.853" y1="8.209" y2="8.209" gradientTransform="matrix(0.14522131,0,0,0.14110907,-15.615686,24.609983)" gradientUnits="userSpaceOnUse" xlink:href="#linearGradient53"/></defs><path id="path595" fill="url(#linearGradient3015)" fill-opacity="1" fill-rule="evenodd" stroke="#005900" stroke-linejoin="bevel" stroke-width="2.2" d="M 1.1346737,35.68489 C 0.16641367,32.934379 16.175144,40.767675 20.445384,39.452928 24.876944,37.073697 54.791764,-0.09013227 60.443074,1.1452547 57.195714,7.8173817 25.807984,53.980496 24.066464,58.550311 20.939244,60.459125 5.7094237,46.10057 1.1346737,35.68489 Z" font-size="12"/></svg>