<svg xmlns="http://www.w3.org/2000/svg" xmlns:svg="http://www.w3.org/2000/svg" xmlns:xlink="http://www.w3.org/1999/xlink" id="svg1430" width="417.333" height="300"><metadata id="metadata1435"/><g id="layer1"><rect id="node1" width="87" height="27" x="152.5" y="91.791" fill="#00f" fill-opacity=".75" fill-rule="evenodd" stroke="#000" stroke-linecap="butt" stroke-linejoin="miter" stroke-opacity="1" stroke-width="1"/><use id="node2" width="744.094" height="1052.362" x="0" y="0" transform="translate(150.0000,-90.00000)" xlink:href="#node1"/><use id="node4" width="500" height="500" x="0" y="0" opacity=".85" transform="translate(0.000000,32.20000)" xlink:href="#node1"/><use id="node5" width="500" height="500" x="0" y="0" opacity=".7" transform="translate(0.000000,64.40000)" xlink:href="#node1"/><use id="node6" width="500" height="500" x="0" y="0" opacity=".55" transform="translate(0.000000,96.60000)" xlink:href="#node1"/><use id="node7" width="500" height="500" x="0" y="0" opacity=".4" transform="translate(0.000000,128.8000)" xlink:href="#node1"/><use id="node8" width="500" height="500" x="0" y="0" opacity=".25" transform="translate(0.000000,161.0000)" xlink:href="#node1"/><use id="node0" width="744.094" height="1052.362" x="0" y="0" transform="translate(-150.0000,-90.00000)" xlink:href="#node1"/><path id="point1" fill="#000" fill-opacity="1" fill-rule="evenodd" stroke="#000" stroke-linecap="butt" stroke-linejoin="miter" stroke-opacity="1" stroke-width="1" d="M 360.00000,272.36218 L 354.69615,287.42436 L 344.30385,275.30000 L 360.00000,272.36218 z" transform="matrix(0.582630,0.222493,-0.110085,1.177467,-7.373800,-342.9808)"/><path id="path1446" fill="#000" fill-opacity="1" fill-rule="evenodd" stroke="#000" stroke-linecap="butt" stroke-linejoin="miter" stroke-opacity="1" stroke-width="1" d="M 360.00000,272.36218 L 354.69615,287.42436 L 344.30385,275.30000 L 360.00000,272.36218 z" transform="matrix(0.222493,-0.582630,1.177467,0.110085,-126.8403,199.6647)"/><text font-style="normal" style="text-align:start;line-height:125%" id="text2544" x="250.856" y="64.604" font-family="Bitstream Vera Sans" font-size="24" font-stretch="normal" font-variant="normal" font-weight="normal" text-anchor="start" writing-mode="lr-tb" xml:space="preserve"><tspan id="tspan2546" x="250.856" y="64.604">Pop</tspan></text><text font-style="normal" style="text-align:start;line-height:125%" id="text2581" x="81.705" y="65.502" font-family="Bitstream Vera Sans" font-size="24" font-stretch="normal" font-variant="normal" font-weight="normal" text-anchor="start" writing-mode="lr-tb" xml:space="preserve"><tspan id="tspan2583" x="81.705" y="65.502">Push</tspan></text><path id="path2432" fill="none" fill-rule="evenodd" stroke="#000" stroke-linecap="butt" stroke-linejoin="miter" stroke-opacity="1" stroke-width="1" d="M 104.5,17.25 L 104.5,17.25 C 167.5,17.25 168,64.75 168,64.75"/><path id="path3204" fill="none" fill-rule="evenodd" stroke="#000" stroke-linecap="butt" stroke-linejoin="miter" stroke-opacity="1" stroke-width="1" d="M 274.75,24 L 274.75,24 C 211.75,24 211.25,71.5 211.25,71.5"/></g></svg>