<svg xmlns="http://www.w3.org/2000/svg" xmlns:osb="http://www.openswatchbook.org/uri/2009/osb" xmlns:svg="http://www.w3.org/2000/svg" xmlns:xlink="http://www.w3.org/1999/xlink" id="svg2" width="520.652" height="73" fill="#000" fill-opacity="1" stroke="#000" stroke-dasharray="none" stroke-dashoffset="0" stroke-linecap="square" stroke-linejoin="miter" stroke-miterlimit="10" stroke-opacity="1" stroke-width="1" color-interpolation="auto" color-rendering="auto" font-family="Dialog" font-size="12" font-style="normal" font-weight="normal" image-rendering="auto" shape-rendering="auto" text-rendering="auto" version="1.1"><metadata id="metadata86"/><defs id="genericDefs"><marker id="marker6699" orient="auto" overflow="visible" refX="0" refY="0"><path id="path6701" fill="#000" fill-opacity="1" fill-rule="evenodd" stroke="#000" stroke-opacity="1" stroke-width="1pt" d="M 0,0 5,-5 -12.5,0 5,5 0,0 Z" transform="matrix(-0.8,0,0,-0.8,-10,0)"/></marker><marker id="marker6599" orient="auto" overflow="visible" refX="0" refY="0"><path id="path6601" fill="#000" fill-opacity="1" fill-rule="evenodd" stroke="#000" stroke-opacity="1" stroke-width="1pt" d="m -2.5,-1 c 0,2.76 -2.24,5 -5,5 -2.76,0 -5,-2.24 -5,-5 0,-2.76 2.24,-5 5,-5 2.76,0 5,2.24 5,5 z" transform="matrix(0.8,0,0,0.8,5.92,0.8)"/></marker><marker id="marker6257" orient="auto" overflow="visible" refX="0" refY="0"><path id="path6259" fill="#000" fill-opacity="1" fill-rule="evenodd" stroke="#000" stroke-opacity="1" stroke-width="1pt" d="M 0,0 5,-5 -12.5,0 5,5 0,0 Z" transform="matrix(-0.8,0,0,-0.8,-10,0)"/></marker><marker id="marker6169" orient="auto" overflow="visible" refX="0" refY="0"><path id="path6171" fill="#000" fill-opacity="1" fill-rule="evenodd" stroke="#000" stroke-opacity="1" stroke-width="1pt" d="m -2.5,-1 c 0,2.76 -2.24,5 -5,5 -2.76,0 -5,-2.24 -5,-5 0,-2.76 2.24,-5 5,-5 2.76,0 5,2.24 5,5 z" transform="matrix(0.8,0,0,0.8,5.92,0.8)"/></marker><linearGradient id="linearGradient6085" osb:paint="solid"><stop id="stop6087" offset="0" stop-color="#000" stop-opacity="1"/></linearGradient><marker id="marker5798" orient="auto" overflow="visible" refX="0" refY="0"><path id="path5800" fill="#000" fill-opacity="1" fill-rule="evenodd" stroke="#000" stroke-opacity="1" stroke-width="1pt" d="M 0,0 5,-5 -12.5,0 5,5 0,0 Z" transform="matrix(-0.8,0,0,-0.8,-10,0)"/></marker><marker id="marker5710" orient="auto" overflow="visible" refX="0" refY="0"><path id="path5712" fill="#000" fill-opacity="1" fill-rule="evenodd" stroke="#000" stroke-opacity="1" stroke-width="1pt" d="m -2.5,-1 c 0,2.76 -2.24,5 -5,5 -2.76,0 -5,-2.24 -5,-5 0,-2.76 2.24,-5 5,-5 2.76,0 5,2.24 5,5 z" transform="matrix(0.8,0,0,0.8,5.92,0.8)"/></marker><marker id="marker5530" orient="auto" overflow="visible" refX="0" refY="0"><path id="path5532" fill="#000" fill-opacity="1" fill-rule="evenodd" stroke="#000" stroke-opacity="1" stroke-width="1pt" d="M 0,0 5,-5 -12.5,0 5,5 0,0 Z" transform="matrix(-0.8,0,0,-0.8,-10,0)"/></marker><marker id="marker5454" orient="auto" overflow="visible" refX="0" refY="0"><path id="path5456" fill="#000" fill-opacity="1" fill-rule="evenodd" stroke="#000" stroke-opacity="1" stroke-width="1pt" d="m -2.5,-1 c 0,2.76 -2.24,5 -5,5 -2.76,0 -5,-2.24 -5,-5 0,-2.76 2.24,-5 5,-5 2.76,0 5,2.24 5,5 z" transform="matrix(0.8,0,0,0.8,5.92,0.8)"/></marker><marker id="marker5070" orient="auto" overflow="visible" refX="0" refY="0"><path id="path5072" fill="#000" fill-opacity="1" fill-rule="evenodd" stroke="#000" stroke-opacity="1" stroke-width="1pt" d="M 0,0 5,-5 -12.5,0 5,5 0,0 Z" transform="matrix(-0.8,0,0,-0.8,-10,0)"/></marker><marker id="marker5006" orient="auto" overflow="visible" refX="0" refY="0"><path id="path5008" fill="#000" fill-opacity="1" fill-rule="evenodd" stroke="#000" stroke-opacity="1" stroke-width="1pt" d="m -2.5,-1 c 0,2.76 -2.24,5 -5,5 -2.76,0 -5,-2.24 -5,-5 0,-2.76 2.24,-5 5,-5 2.76,0 5,2.24 5,5 z" transform="matrix(0.8,0,0,0.8,5.92,0.8)"/></marker><marker id="DiamondM" orient="auto" overflow="visible" refX="0" refY="0"><path id="path4594" fill="#000" fill-opacity="1" fill-rule="evenodd" stroke="#000" stroke-opacity="1" stroke-width="1pt" d="M 0,-7.0710768 -7.0710894,0 0,7.0710589 7.0710462,0 0,-7.0710768 Z" transform="scale(0.4,0.4)"/></marker><marker id="DotL" orient="auto" overflow="visible" refX="0" refY="0"><path id="path4573" fill="#000" fill-opacity="1" fill-rule="evenodd" stroke="#000" stroke-opacity="1" stroke-width="1pt" d="m -2.5,-1 c 0,2.76 -2.24,5 -5,5 -2.76,0 -5,-2.24 -5,-5 0,-2.76 2.24,-5 5,-5 2.76,0 5,2.24 5,5 z" transform="matrix(0.8,0,0,0.8,5.92,0.8)"/></marker><marker id="marker5142" orient="auto" overflow="visible" refX="0" refY="0"><path id="path5144" fill="#000" fill-opacity="1" fill-rule="evenodd" stroke="#000" stroke-opacity="1" stroke-width="1pt" d="M 0,0 5,-5 -12.5,0 5,5 0,0 Z" transform="matrix(-0.8,0,0,-0.8,-10,0)"/></marker><linearGradient id="linearGradient6474" osb:paint="gradient"><stop id="stop6476" offset="0" stop-color="#000" stop-opacity="1"/><stop id="stop6478" offset="1" stop-color="#000" stop-opacity="0"/></linearGradient><linearGradient id="linearGradient6466"><stop id="stop6468" offset="0" stop-color="#0c0a0c" stop-opacity="1"/><stop id="stop6470" offset="1" stop-color="#0c0a0c" stop-opacity="0"/></linearGradient><linearGradient id="linearGradient6322" osb:paint="solid"><stop id="stop6324" offset="0" stop-color="#000" stop-opacity="1"/></linearGradient><defs id="defs1"><clipPath id="clipPath1" clipPathUnits="userSpaceOnUse"><path id="path9" d="M 0,0 414,0 414,178 0,178 0,0 Z"/></clipPath><clipPath id="clipPath2" clipPathUnits="userSpaceOnUse"><path id="path12" d="m -543,-360 414,0 0,178 -414,0 0,-178 z"/></clipPath></defs><clipPath id="clipPath2-3" clipPathUnits="userSpaceOnUse"><path id="path12-3" d="m -543,-360 414,0 0,178 -414,0 0,-178 z"/></clipPath><clipPath id="clipPath3826" clipPathUnits="userSpaceOnUse"><path id="path3828" d="m -543,-360 414,0 0,178 -414,0 0,-178 z"/></clipPath><clipPath id="clipPath2-4" clipPathUnits="userSpaceOnUse"><path id="path12-7" d="m -543,-360 414,0 0,178 -414,0 0,-178 z"/></clipPath><linearGradient id="linearGradient6472" x1="12.585" x2="27.751" y1="112.62" y2="112.62" gradientUnits="userSpaceOnUse" xlink:href="#linearGradient6466"/><linearGradient id="linearGradient6496" x1="12.585" x2="27.751" y1="112.62" y2="112.62" gradientUnits="userSpaceOnUse" xlink:href="#linearGradient6466"/><linearGradient id="linearGradient6498" x1="12.585" x2="27.751" y1="112.62" y2="112.62" gradientUnits="userSpaceOnUse" xlink:href="#linearGradient6466"/><clipPath id="clipPath2-38" clipPathUnits="userSpaceOnUse"><path id="path12-6" d="m -543,-360 414,0 0,178 -414,0 0,-178 z"/></clipPath><clipPath id="clipPath6727" clipPathUnits="userSpaceOnUse"><path id="path6729" d="m -543,-360 414,0 0,178 -414,0 0,-178 z"/></clipPath><clipPath id="clipPath2-2" clipPathUnits="userSpaceOnUse"><path id="path12-0" d="m -543,-360 414,0 0,178 -414,0 0,-178 z"/></clipPath><clipPath id="clipPath2-8" clipPathUnits="userSpaceOnUse"><path id="path12-62" d="m -543,-360 414,0 0,178 -414,0 0,-178 z"/></clipPath><clipPath id="clipPath6789" clipPathUnits="userSpaceOnUse"><path id="path6791" d="m -543,-360 414,0 0,178 -414,0 0,-178 z"/></clipPath><clipPath id="clipPath2-5" clipPathUnits="userSpaceOnUse"><path id="path12-9" d="m -543,-360 414,0 0,178 -414,0 0,-178 z"/></clipPath><clipPath id="clipPath2-4-9" clipPathUnits="userSpaceOnUse"><path id="path12-7-7" d="m -543,-360 414,0 0,178 -414,0 0,-178 z"/></clipPath><clipPath id="clipPath2-3-7" clipPathUnits="userSpaceOnUse"><path id="path12-3-5" d="m -543,-360 414,0 0,178 -414,0 0,-178 z"/></clipPath><clipPath id="clipPath3075" clipPathUnits="userSpaceOnUse"><path id="path3077" d="m -543,-360 414,0 0,178 -414,0 0,-178 z"/></clipPath><clipPath id="clipPath2-44" clipPathUnits="userSpaceOnUse"><path id="path12-65" d="m -543,-360 414,0 0,178 -414,0 0,-178 z"/></clipPath><clipPath id="clipPath3081" clipPathUnits="userSpaceOnUse"><path id="path3083" d="m -543,-360 414,0 0,178 -414,0 0,-178 z"/></clipPath><clipPath id="clipPath3085" clipPathUnits="userSpaceOnUse"><path id="path3087" d="m -543,-360 414,0 0,178 -414,0 0,-178 z"/></clipPath><clipPath id="clipPath3089" clipPathUnits="userSpaceOnUse"><path id="path3091" d="m -543,-360 414,0 0,178 -414,0 0,-178 z"/></clipPath><clipPath id="clipPath3093" clipPathUnits="userSpaceOnUse"><path id="path3095" d="m -543,-360 414,0 0,178 -414,0 0,-178 z"/></clipPath><clipPath id="clipPath3097" clipPathUnits="userSpaceOnUse"><path id="path3099" d="m -543,-360 414,0 0,178 -414,0 0,-178 z"/></clipPath><clipPath id="clipPath3101" clipPathUnits="userSpaceOnUse"><path id="path3103" d="m -543,-360 414,0 0,178 -414,0 0,-178 z"/></clipPath><clipPath id="clipPath3105" clipPathUnits="userSpaceOnUse"><path id="path3107" d="m -543,-360 414,0 0,178 -414,0 0,-178 z"/></clipPath><clipPath id="clipPath3109" clipPathUnits="userSpaceOnUse"><path id="path3111" d="m -543,-360 414,0 0,178 -414,0 0,-178 z"/></clipPath><clipPath id="clipPath3113" clipPathUnits="userSpaceOnUse"><path id="path3115" d="m -543,-360 414,0 0,178 -414,0 0,-178 z"/></clipPath><clipPath id="clipPath3117" clipPathUnits="userSpaceOnUse"><path id="path3119" d="m -543,-360 414,0 0,178 -414,0 0,-178 z"/></clipPath><clipPath id="clipPath3121" clipPathUnits="userSpaceOnUse"><path id="path3123" d="m -543,-360 414,0 0,178 -414,0 0,-178 z"/></clipPath><clipPath id="clipPath3125" clipPathUnits="userSpaceOnUse"><path id="path3127" d="m -543,-360 414,0 0,178 -414,0 0,-178 z"/></clipPath><clipPath id="clipPath3129" clipPathUnits="userSpaceOnUse"><path id="path3131" d="m -543,-360 414,0 0,178 -414,0 0,-178 z"/></clipPath><clipPath id="clipPath3133" clipPathUnits="userSpaceOnUse"><path id="path3135" d="m -543,-360 414,0 0,178 -414,0 0,-178 z"/></clipPath><clipPath id="clipPath3137" clipPathUnits="userSpaceOnUse"><path id="path3139" d="m -543,-360 414,0 0,178 -414,0 0,-178 z"/></clipPath><clipPath id="clipPath3141" clipPathUnits="userSpaceOnUse"><path id="path3143" d="m -543,-360 414,0 0,178 -414,0 0,-178 z"/></clipPath><clipPath id="clipPath3145" clipPathUnits="userSpaceOnUse"><path id="path3147" d="m -543,-360 414,0 0,178 -414,0 0,-178 z"/></clipPath><clipPath id="clipPath3149" clipPathUnits="userSpaceOnUse"><path id="path3151" d="m -543,-360 414,0 0,178 -414,0 0,-178 z"/></clipPath><clipPath id="clipPath3153" clipPathUnits="userSpaceOnUse"><path id="path3155" d="m -543,-360 414,0 0,178 -414,0 0,-178 z"/></clipPath><clipPath id="clipPath3157" clipPathUnits="userSpaceOnUse"><path id="path3159" d="m -543,-360 414,0 0,178 -414,0 0,-178 z"/></clipPath><clipPath id="clipPath3161" clipPathUnits="userSpaceOnUse"><path id="path3163" d="m -543,-360 414,0 0,178 -414,0 0,-178 z"/></clipPath><clipPath id="clipPath2-4-93" clipPathUnits="userSpaceOnUse"><path id="path12-7-3" d="m -543,-360 414,0 0,178 -414,0 0,-178 z"/></clipPath><clipPath id="clipPath2-3-8" clipPathUnits="userSpaceOnUse"><path id="path12-3-0" d="m -543,-360 414,0 0,178 -414,0 0,-178 z"/></clipPath><clipPath id="clipPath3221" clipPathUnits="userSpaceOnUse"><path id="path3223" d="m -543,-360 414,0 0,178 -414,0 0,-178 z"/></clipPath><clipPath id="clipPath2-56" clipPathUnits="userSpaceOnUse"><path id="path12-64" d="m -543,-360 414,0 0,178 -414,0 0,-178 z"/></clipPath><clipPath id="clipPath3227" clipPathUnits="userSpaceOnUse"><path id="path3229" d="m -543,-360 414,0 0,178 -414,0 0,-178 z"/></clipPath><clipPath id="clipPath3231" clipPathUnits="userSpaceOnUse"><path id="path3233" d="m -543,-360 414,0 0,178 -414,0 0,-178 z"/></clipPath><clipPath id="clipPath3235" clipPathUnits="userSpaceOnUse"><path id="path3237" d="m -543,-360 414,0 0,178 -414,0 0,-178 z"/></clipPath><clipPath id="clipPath3239" clipPathUnits="userSpaceOnUse"><path id="path3241" d="m -543,-360 414,0 0,178 -414,0 0,-178 z"/></clipPath><clipPath id="clipPath3243" clipPathUnits="userSpaceOnUse"><path id="path3245" d="m -543,-360 414,0 0,178 -414,0 0,-178 z"/></clipPath><clipPath id="clipPath3247" clipPathUnits="userSpaceOnUse"><path id="path3249" d="m -543,-360 414,0 0,178 -414,0 0,-178 z"/></clipPath><clipPath id="clipPath3251" clipPathUnits="userSpaceOnUse"><path id="path3253" d="m -543,-360 414,0 0,178 -414,0 0,-178 z"/></clipPath><clipPath id="clipPath3255" clipPathUnits="userSpaceOnUse"><path id="path3257" d="m -543,-360 414,0 0,178 -414,0 0,-178 z"/></clipPath><clipPath id="clipPath3259" clipPathUnits="userSpaceOnUse"><path id="path3261" d="m -543,-360 414,0 0,178 -414,0 0,-178 z"/></clipPath><clipPath id="clipPath3263" clipPathUnits="userSpaceOnUse"><path id="path3265" d="m -543,-360 414,0 0,178 -414,0 0,-178 z"/></clipPath><clipPath id="clipPath3267" clipPathUnits="userSpaceOnUse"><path id="path3269" d="m -543,-360 414,0 0,178 -414,0 0,-178 z"/></clipPath><clipPath id="clipPath3271" clipPathUnits="userSpaceOnUse"><path id="path3273" d="m -543,-360 414,0 0,178 -414,0 0,-178 z"/></clipPath><clipPath id="clipPath3275" clipPathUnits="userSpaceOnUse"><path id="path3277" d="m -543,-360 414,0 0,178 -414,0 0,-178 z"/></clipPath><clipPath id="clipPath3279" clipPathUnits="userSpaceOnUse"><path id="path3281" d="m -543,-360 414,0 0,178 -414,0 0,-178 z"/></clipPath><clipPath id="clipPath3283" clipPathUnits="userSpaceOnUse"><path id="path3285" d="m -543,-360 414,0 0,178 -414,0 0,-178 z"/></clipPath><clipPath id="clipPath3287" clipPathUnits="userSpaceOnUse"><path id="path3289" d="m -543,-360 414,0 0,178 -414,0 0,-178 z"/></clipPath><clipPath id="clipPath3291" clipPathUnits="userSpaceOnUse"><path id="path3293" d="m -543,-360 414,0 0,178 -414,0 0,-178 z"/></clipPath><clipPath id="clipPath3295" clipPathUnits="userSpaceOnUse"><path id="path3297" d="m -543,-360 414,0 0,178 -414,0 0,-178 z"/></clipPath><clipPath id="clipPath3299" clipPathUnits="userSpaceOnUse"><path id="path3301" d="m -543,-360 414,0 0,178 -414,0 0,-178 z"/></clipPath><clipPath id="clipPath3303" clipPathUnits="userSpaceOnUse"><path id="path3305" d="m -543,-360 414,0 0,178 -414,0 0,-178 z"/></clipPath><clipPath id="clipPath3307" clipPathUnits="userSpaceOnUse"><path id="path3309" d="m -543,-360 414,0 0,178 -414,0 0,-178 z"/></clipPath><clipPath id="clipPath2-4-4" clipPathUnits="userSpaceOnUse"><path id="path12-7-79" d="m -543,-360 414,0 0,178 -414,0 0,-178 z"/></clipPath><clipPath id="clipPath2-3-3" clipPathUnits="userSpaceOnUse"><path id="path12-3-9" d="m -543,-360 414,0 0,178 -414,0 0,-178 z"/></clipPath><clipPath id="clipPath3393" clipPathUnits="userSpaceOnUse"><path id="path3395" d="m -543,-360 414,0 0,178 -414,0 0,-178 z"/></clipPath><clipPath id="clipPath2-56-8" clipPathUnits="userSpaceOnUse"><path id="path12-64-8" d="m -543,-360 414,0 0,178 -414,0 0,-178 z"/></clipPath><marker id="Arrow1Lend-5" orient="auto" overflow="visible" refX="0" refY="0"><path id="path4598-5" fill="#000" fill-opacity="1" fill-rule="evenodd" stroke="#000" stroke-opacity="1" stroke-width="1pt" d="M 0,0 5,-5 -12.5,0 5,5 0,0 Z" transform="matrix(-0.8,0,0,-0.8,-10,0)"/></marker></defs><g id="g3682" transform="translate(55.758743,-77.058559)"><g id="g3551" fill="#000" fill-opacity="1" stroke="#000" stroke-dasharray="none" stroke-dashoffset="0" stroke-linecap="square" stroke-linejoin="miter" stroke-miterlimit="10" stroke-opacity="1" stroke-width="1" color-interpolation="auto" color-rendering="auto" font-family="Dialog" font-size="12" font-style="normal" font-weight="normal" image-rendering="auto" shape-rendering="auto" text-rendering="auto" transform="translate(-175.72461,35.890004)"><rect id="rect3553" width="38.826" height="27.826" x="142.312" y="64.789" fill="#ff823f" fill-opacity="1" stroke="#000" stroke-linecap="round" stroke-linejoin="round" stroke-width="1.174" display="inline"/></g><path id="path3567" fill="none" fill-opacity="1" fill-rule="evenodd" stroke="#000" stroke-dasharray="none" stroke-dashoffset="0" stroke-linecap="butt" stroke-linejoin="miter" stroke-miterlimit="10" stroke-opacity="1" stroke-width="1" marker-end="url(#Arrow1Lend-5)" marker-start="url(#DotL)" d="m -14.632565,114.64685 68.85255,-0.11081" color-interpolation="auto" color-rendering="auto" font-family="Dialog" font-size="12" font-style="normal" font-weight="normal" image-rendering="auto" shape-rendering="auto" text-rendering="auto"/></g><g id="g3613" transform="translate(160.0103,-77.058559)"><rect id="rect3615" width="38.826" height="27.826" x="180.587" y="100.587" fill="#fc9" fill-opacity="1" stroke="#000" stroke-dasharray="none" stroke-dashoffset="0" stroke-linecap="round" stroke-linejoin="round" stroke-miterlimit="10" stroke-opacity="1" stroke-width="1.174" color-interpolation="auto" color-rendering="auto" display="inline" font-family="Dialog" font-size="medium" font-style="normal" font-weight="normal" image-rendering="auto" shape-rendering="auto" text-rendering="auto"/><rect id="rect3617" width="16.22" height="27.826" x="219.444" y="100.587" fill="#ff823f" fill-opacity="1" stroke="#000" stroke-dasharray="none" stroke-dashoffset="0" stroke-linecap="round" stroke-linejoin="round" stroke-miterlimit="10" stroke-opacity="1" stroke-width="1.174" color-interpolation="auto" color-rendering="auto" display="inline" font-family="Dialog" font-size="medium" font-style="normal" font-weight="normal" image-rendering="auto" shape-rendering="auto" text-rendering="auto"/><text id="text3621" x="189.435" y="118.766" fill="#000" fill-opacity="1" stroke="none" stroke-dasharray="none" stroke-dashoffset="0" stroke-linecap="square" stroke-linejoin="miter" stroke-miterlimit="10" stroke-opacity="1" stroke-width="1" color-interpolation="auto" color-rendering="auto" font-family="Arial" font-size="9.854" font-stretch="normal" font-style="normal" font-variant="normal" font-weight="normal" image-rendering="auto" shape-rendering="auto" text-anchor="start" text-rendering="auto" transform="scale(1.0007779,0.9992227)" writing-mode="lr-tb" xml:space="preserve" style="line-height:100%;-inkscape-font-specification:Arial;text-align:start"><tspan style="-inkscape-font-specification:courier" id="tspan3623" x="189.435" y="118.766" font-family="courier" font-size="22.5" font-stretch="normal" font-style="normal" font-variant="normal" font-weight="normal">A<tspan id="tspan3625" baseline-shift="sub" font-size="65%">1</tspan></tspan></text><rect id="rect3629" width="16.22" height="27.826" x="164.227" y="100.587" fill="#ff823f" fill-opacity="1" stroke="#000" stroke-dasharray="none" stroke-dashoffset="0" stroke-linecap="round" stroke-linejoin="round" stroke-miterlimit="10" stroke-opacity="1" stroke-width="1.174" color-interpolation="auto" color-rendering="auto" display="inline" font-family="Dialog" font-size="medium" font-style="normal" font-weight="normal" image-rendering="auto" shape-rendering="auto" text-rendering="auto"/><path id="path6551-69" fill="none" fill-opacity="1" fill-rule="evenodd" stroke="#000" stroke-dasharray="none" stroke-dashoffset="0" stroke-linecap="butt" stroke-linejoin="miter" stroke-miterlimit="10" stroke-opacity="1" stroke-width="1" d="m 235.4583,100.69781 -15.73554,27.4818" color-interpolation="auto" color-rendering="auto" font-family="Dialog" font-size="12" font-style="normal" font-weight="normal" image-rendering="auto" shape-rendering="auto" text-rendering="auto"/></g><g id="g3603" transform="translate(54.010305,-77.058559)"><rect id="rect3563" width="38.826" height="27.826" x="180.587" y="100.587" fill="#fc9" fill-opacity="1" stroke="#000" stroke-dasharray="none" stroke-dashoffset="0" stroke-linecap="round" stroke-linejoin="round" stroke-miterlimit="10" stroke-opacity="1" stroke-width="1.174" color-interpolation="auto" color-rendering="auto" display="inline" font-family="Dialog" font-size="medium" font-style="normal" font-weight="normal" image-rendering="auto" shape-rendering="auto" text-rendering="auto"/><rect id="rect3565" width="16.22" height="27.826" x="219.444" y="100.587" fill="#ff823f" fill-opacity="1" stroke="#000" stroke-dasharray="none" stroke-dashoffset="0" stroke-linecap="round" stroke-linejoin="round" stroke-miterlimit="10" stroke-opacity="1" stroke-width="1.174" color-interpolation="auto" color-rendering="auto" display="inline" font-family="Dialog" font-size="medium" font-style="normal" font-weight="normal" image-rendering="auto" shape-rendering="auto" text-rendering="auto"/><path id="path3571" fill="none" fill-opacity="1" fill-rule="evenodd" stroke="#000" stroke-dasharray="none" stroke-dashoffset="0" stroke-linecap="butt" stroke-linejoin="miter" stroke-miterlimit="10" stroke-opacity="1" stroke-width="1" marker-end="url(#marker5070)" marker-start="url(#marker5006)" d="m 227.96274,114.64685 40.48424,-0.11081" color-interpolation="auto" color-rendering="auto" font-family="Dialog" font-size="12" font-style="normal" font-weight="normal" image-rendering="auto" shape-rendering="auto" text-rendering="auto"/><text id="text3573" x="189.435" y="118.766" fill="#000" fill-opacity="1" stroke="none" stroke-dasharray="none" stroke-dashoffset="0" stroke-linecap="square" stroke-linejoin="miter" stroke-miterlimit="10" stroke-opacity="1" stroke-width="1" color-interpolation="auto" color-rendering="auto" font-family="Arial" font-size="9.854" font-stretch="normal" font-style="normal" font-variant="normal" font-weight="normal" image-rendering="auto" shape-rendering="auto" text-anchor="start" text-rendering="auto" transform="scale(1.0007779,0.9992227)" writing-mode="lr-tb" xml:space="preserve" style="line-height:100%;-inkscape-font-specification:Arial;text-align:start"><tspan id="tspan3575" x="189.435" y="118.766" font-family="courier" font-size="22.5" font-stretch="normal" font-style="normal" font-variant="normal" font-weight="normal" style="-inkscape-font-specification:courier">A<tspan id="tspan3577" baseline-shift="sub" font-size="65%">1</tspan></tspan></text><rect id="rect3601" width="16.22" height="27.826" x="164.227" y="100.587" fill="#ff823f" fill-opacity="1" stroke="#000" stroke-dasharray="none" stroke-dashoffset="0" stroke-linecap="round" stroke-linejoin="round" stroke-miterlimit="10" stroke-opacity="1" stroke-width="1.174" color-interpolation="auto" color-rendering="auto" display="inline" font-family="Dialog" font-size="medium" font-style="normal" font-weight="normal" image-rendering="auto" shape-rendering="auto" text-rendering="auto"/><path id="path3653" fill="none" fill-opacity="1" fill-rule="evenodd" stroke="#000" stroke-dasharray="none" stroke-dashoffset="0" stroke-linecap="butt" stroke-linejoin="miter" stroke-miterlimit="10" stroke-opacity="1" stroke-width="1" marker-end="url(#marker5070)" marker-start="url(#marker5006)" d="M 170.07073,115.71693 169.81682,148.71687 64.5451,148.54936 64.33448,129.68675" color-interpolation="auto" color-rendering="auto" font-family="Dialog" font-size="12" font-style="normal" font-weight="normal" image-rendering="auto" shape-rendering="auto" text-rendering="auto"/><path id="path3651" fill="none" fill-opacity="1" fill-rule="evenodd" stroke="#000" stroke-dasharray="none" stroke-dashoffset="0" stroke-linecap="butt" stroke-linejoin="miter" stroke-miterlimit="10" stroke-opacity="1" stroke-width="1" marker-end="url(#marker5070)" marker-start="url(#marker5006)" d="m 278.51934,114.69825 -0.25391,32.99994 -103.72033,-0.16751 -0.21062,-18.86261" color-interpolation="auto" color-rendering="auto" font-family="Dialog" font-size="12" font-style="normal" font-weight="normal" image-rendering="auto" shape-rendering="auto" text-rendering="auto"/></g><g id="g3631" transform="translate(-51.989695,-77.058559)"><rect id="rect3633" width="38.826" height="27.826" x="180.587" y="100.587" fill="#fc9" fill-opacity="1" stroke="#000" stroke-dasharray="none" stroke-dashoffset="0" stroke-linecap="round" stroke-linejoin="round" stroke-miterlimit="10" stroke-opacity="1" stroke-width="1.174" color-interpolation="auto" color-rendering="auto" display="inline" font-family="Dialog" font-size="medium" font-style="normal" font-weight="normal" image-rendering="auto" shape-rendering="auto" text-rendering="auto"/><rect id="rect3635" width="16.22" height="27.826" x="219.444" y="100.587" fill="#ff823f" fill-opacity="1" stroke="#000" stroke-dasharray="none" stroke-dashoffset="0" stroke-linecap="round" stroke-linejoin="round" stroke-miterlimit="10" stroke-opacity="1" stroke-width="1.174" color-interpolation="auto" color-rendering="auto" display="inline" font-family="Dialog" font-size="medium" font-style="normal" font-weight="normal" image-rendering="auto" shape-rendering="auto" text-rendering="auto"/><path id="path3637" fill="none" fill-opacity="1" fill-rule="evenodd" stroke="#000" stroke-dasharray="none" stroke-dashoffset="0" stroke-linecap="butt" stroke-linejoin="miter" stroke-miterlimit="10" stroke-opacity="1" stroke-width="1" marker-end="url(#marker5070)" marker-start="url(#marker5006)" d="m 227.96274,114.64685 40.48424,-0.11081" color-interpolation="auto" color-rendering="auto" font-family="Dialog" font-size="12" font-style="normal" font-weight="normal" image-rendering="auto" shape-rendering="auto" text-rendering="auto"/><text id="text3639" x="189.435" y="118.766" fill="#000" fill-opacity="1" stroke="none" stroke-dasharray="none" stroke-dashoffset="0" stroke-linecap="square" stroke-linejoin="miter" stroke-miterlimit="10" stroke-opacity="1" stroke-width="1" color-interpolation="auto" color-rendering="auto" font-family="Arial" font-size="9.854" font-stretch="normal" font-style="normal" font-variant="normal" font-weight="normal" image-rendering="auto" shape-rendering="auto" text-anchor="start" text-rendering="auto" transform="scale(1.0007779,0.9992227)" writing-mode="lr-tb" xml:space="preserve" style="line-height:100%;-inkscape-font-specification:Arial;text-align:start"><tspan style="-inkscape-font-specification:courier" id="tspan3641" x="189.435" y="118.766" font-family="courier" font-size="22.5" font-stretch="normal" font-style="normal" font-variant="normal" font-weight="normal">A<tspan id="tspan3643" baseline-shift="sub" font-size="65%">1</tspan></tspan></text><rect id="rect3647" width="16.22" height="27.826" x="164.227" y="100.587" fill="#ff823f" fill-opacity="1" stroke="#000" stroke-dasharray="none" stroke-dashoffset="0" stroke-linecap="round" stroke-linejoin="round" stroke-miterlimit="10" stroke-opacity="1" stroke-width="1.174" color-interpolation="auto" color-rendering="auto" display="inline" font-family="Dialog" font-size="medium" font-style="normal" font-weight="normal" image-rendering="auto" shape-rendering="auto" text-rendering="auto"/><path id="path6551-6" fill="none" fill-opacity="1" fill-rule="evenodd" stroke="#000" stroke-dasharray="none" stroke-dashoffset="0" stroke-linecap="butt" stroke-linejoin="miter" stroke-miterlimit="10" stroke-opacity="1" stroke-width="1" d="m 180.45831,100.36268 -15.73555,27.48179" color-interpolation="auto" color-rendering="auto" font-family="Dialog" font-size="12" font-style="normal" font-weight="normal" image-rendering="auto" shape-rendering="auto" text-rendering="auto"/></g><text id="text3639-4" x="-1.406" y="43.989" fill="#000" fill-opacity="1" stroke="none" stroke-dasharray="none" stroke-dashoffset="0" stroke-linecap="square" stroke-linejoin="miter" stroke-miterlimit="10" stroke-opacity="1" stroke-width="1" color-interpolation="auto" color-rendering="auto" font-family="Arial" font-size="9.854" font-stretch="normal" font-style="normal" font-variant="normal" font-weight="normal" image-rendering="auto" shape-rendering="auto" text-anchor="start" text-rendering="auto" transform="scale(1.0007779,0.9992227)" writing-mode="lr-tb" xml:space="preserve" style="line-height:100%;-inkscape-font-specification:Arial;text-align:start"><tspan style="-inkscape-font-specification:courier" id="tspan3641-9" x="-1.406" y="43.989" font-family="courier" font-size="22.5" font-stretch="normal" font-style="normal" font-variant="normal" font-weight="bold">L</tspan></text><ellipse color="#000" style="isolation:auto;mix-blend-mode:normal;solid-color:#000;solid-opacity:1;marker:none" id="path3799" cx="469.152" cy="36.5" fill="#ffff4f" fill-opacity="1" fill-rule="nonzero" stroke="#000" stroke-dasharray="6 6" stroke-dashoffset="0" stroke-linecap="square" stroke-linejoin="miter" stroke-miterlimit="10" stroke-opacity="1" stroke-width="3" clip-rule="nonzero" color-interpolation="auto" color-interpolation-filters="linearRGB" color-rendering="auto" display="inline" enable-background="accumulate" image-rendering="auto" opacity="1" overflow="visible" rx="50" ry="35" shape-rendering="auto" text-rendering="auto" visibility="visible"/><g id="g3783" transform="matrix(-1,0,0,1,451.79875,-77.058559)"><g id="g3785" fill="#000" fill-opacity="1" stroke="#000" stroke-dasharray="none" stroke-dashoffset="0" stroke-linecap="square" stroke-linejoin="miter" stroke-miterlimit="10" stroke-opacity="1" stroke-width="1" color-interpolation="auto" color-rendering="auto" font-family="Dialog" font-size="12" font-style="normal" font-weight="normal" image-rendering="auto" shape-rendering="auto" text-rendering="auto" transform="translate(-175.72461,35.890004)"><rect id="rect3787" width="38.826" height="27.826" x="142.312" y="64.789" fill="#c00" fill-opacity="1" stroke="#000" stroke-linecap="round" stroke-linejoin="round" stroke-width="1.174" display="inline"/></g><path id="path3789" fill="none" fill-opacity="1" fill-rule="evenodd" stroke="#000" stroke-dasharray="none" stroke-dashoffset="0" stroke-linecap="butt" stroke-linejoin="miter" stroke-miterlimit="10" stroke-opacity="1" stroke-width="1" marker-end="url(#Arrow1Lend-5)" marker-start="url(#DotL)" d="m -14.632565,114.64685 68.85255,-0.11081" color-interpolation="auto" color-rendering="auto" font-family="Dialog" font-size="12" font-style="normal" font-weight="normal" image-rendering="auto" shape-rendering="auto" text-rendering="auto"/></g><text id="text3791" x="494.208" y="43.989" fill="#000" fill-opacity="1" stroke="none" stroke-dasharray="none" stroke-dashoffset="0" stroke-linecap="square" stroke-linejoin="miter" stroke-miterlimit="10" stroke-opacity="1" stroke-width="1" color-interpolation="auto" color-rendering="auto" font-family="Arial" font-size="9.854" font-stretch="normal" font-style="normal" font-variant="normal" font-weight="normal" image-rendering="auto" shape-rendering="auto" text-anchor="start" text-rendering="auto" transform="scale(1.0007779,0.9992227)" writing-mode="lr-tb" xml:space="preserve" style="line-height:100%;-inkscape-font-specification:Arial;text-align:start"><tspan id="tspan3793" x="494.208" y="43.989" font-family="courier" font-size="22.5" font-stretch="normal" font-style="normal" font-variant="normal" font-weight="bold" style="-inkscape-font-specification:courier">Q</tspan></text></svg>