<svg xmlns="http://www.w3.org/2000/svg" xmlns:svg="http://www.w3.org/2000/svg" xmlns:xlink="http://www.w3.org/1999/xlink" id="svg1430" width="413.867" height="263.253" version="1.1"><metadata id="metadata1435"/><g id="layer1" transform="translate(-2.0001068,-1.2907791)"><rect id="node1" width="87" height="27" x="152.5" y="91.791" fill="#00f" fill-opacity=".75" fill-rule="evenodd" stroke="#000" stroke-linecap="butt" stroke-linejoin="miter" stroke-opacity="1" stroke-width="1"/><use id="node2" width="744.094" height="1052.362" x="0" y="0" transform="translate(150,-90)" xlink:href="#node1"/><use id="node4" width="500" height="500" x="0" y="0" opacity=".85" transform="translate(0,32.2)" xlink:href="#node1"/><use id="node5" width="500" height="500" x="0" y="0" opacity=".7" transform="translate(0,64.4)" xlink:href="#node1"/><use id="node6" width="500" height="500" x="0" y="0" opacity=".55" transform="translate(0,96.6)" xlink:href="#node1"/><use id="node7" width="500" height="500" x="0" y="0" opacity=".4" transform="translate(0,128.8)" xlink:href="#node1"/><use id="node0" width="744.094" height="1052.362" x="0" y="0" transform="translate(-150,-90)" xlink:href="#node1"/><path id="point1" fill="#000" fill-opacity="1" fill-rule="evenodd" stroke="#000" stroke-linecap="butt" stroke-linejoin="miter" stroke-opacity="1" stroke-width="1" d="M 360,272.36218 354.69615,287.42436 344.30385,275.3 Z" transform="matrix(0.58263,0.222493,-0.110085,1.177467,-7.3738,-342.9808)"/><path id="path1446" fill="#000" fill-opacity="1" fill-rule="evenodd" stroke="#000" stroke-linecap="butt" stroke-linejoin="miter" stroke-opacity="1" stroke-width="1" d="M 360,272.36218 354.69615,287.42436 344.30385,275.3 Z" transform="matrix(0.222493,-0.58263,1.177467,0.110085,-126.8403,199.6647)"/><text id="text2581" x="95.397" y="65.502" font-family="Bitstream Vera Sans" font-size="24" font-stretch="normal" font-style="normal" font-variant="normal" font-weight="normal" text-anchor="start" writing-mode="lr-tb" xml:space="preserve" style="line-height:125%;text-align:start"><tspan style="text-align:center" id="tspan2583" x="95.397" y="65.502" text-anchor="middle">Empiler</tspan><tspan style="text-align:center" id="tspan4150" x="95.397" y="89.023" font-size="17.5" text-anchor="middle">(rangement)</tspan></text><path id="path2432" fill="none" fill-rule="evenodd" stroke="#000" stroke-linecap="butt" stroke-linejoin="miter" stroke-opacity="1" stroke-width="1" d="m 104.5,17.25 0,0 c 63,0 63.5,47.5 63.5,47.5"/><path id="path3204" fill="none" fill-rule="evenodd" stroke="#000" stroke-linecap="butt" stroke-linejoin="miter" stroke-opacity="1" stroke-width="1" d="m 274.75,24 0,0 c -63,0 -63.5,47.5 -63.5,47.5"/><text id="text4152" x="295.397" y="65.502" font-family="Bitstream Vera Sans" font-size="24" font-stretch="normal" font-style="normal" font-variant="normal" font-weight="normal" text-anchor="start" writing-mode="lr-tb" xml:space="preserve" style="line-height:125%;text-align:start"><tspan id="tspan4154" x="295.397" y="65.502" text-anchor="middle" style="text-align:center">Dépiler</tspan><tspan id="tspan4156" x="295.397" y="89.023" font-size="17.5" text-anchor="middle" style="text-align:center">(utilisation)</tspan></text></g></svg>