<svg xmlns="http://www.w3.org/2000/svg" xmlns:osb="http://www.openswatchbook.org/uri/2009/osb" xmlns:svg="http://www.w3.org/2000/svg" xmlns:xlink="http://www.w3.org/1999/xlink" id="svg2" width="628.673" height="29.092" fill="#000" fill-opacity="1" stroke="#000" stroke-dasharray="none" stroke-dashoffset="0" stroke-linecap="square" stroke-linejoin="miter" stroke-miterlimit="10" stroke-opacity="1" stroke-width="1" color-interpolation="auto" color-rendering="auto" font-family="Dialog" font-size="12" font-style="normal" font-weight="normal" image-rendering="auto" shape-rendering="auto" text-rendering="auto" version="1.1"><metadata id="metadata86"/><defs id="genericDefs"><marker id="marker12363" orient="auto" overflow="visible" refX="0" refY="0"><path id="path12365" fill="#000" fill-opacity="1" fill-rule="evenodd" stroke="#000" stroke-opacity="1" stroke-width="1pt" d="M 0,0 5,-5 -12.5,0 5,5 0,0 Z" transform="matrix(-0.8,0,0,-0.8,-10,0)"/></marker><marker id="marker12353" orient="auto" overflow="visible" refX="0" refY="0"><path id="path12355" fill="#000" fill-opacity="1" fill-rule="evenodd" stroke="#000" stroke-opacity="1" stroke-width="1pt" d="m -2.5,-1 c 0,2.76 -2.24,5 -5,5 -2.76,0 -5,-2.24 -5,-5 0,-2.76 2.24,-5 5,-5 2.76,0 5,2.24 5,5 z" transform="matrix(0.8,0,0,0.8,5.92,0.8)"/></marker><marker id="marker11579" orient="auto" overflow="visible" refX="0" refY="0"><path id="path11581" fill="#000" fill-opacity="1" fill-rule="evenodd" stroke="#000" stroke-opacity="1" stroke-width="1pt" d="M 0,0 5,-5 -12.5,0 5,5 0,0 Z" transform="matrix(-0.8,0,0,-0.8,-10,0)"/></marker><marker id="marker11569" orient="auto" overflow="visible" refX="0" refY="0"><path id="path11571" fill="#000" fill-opacity="1" fill-rule="evenodd" stroke="#000" stroke-opacity="1" stroke-width="1pt" d="m -2.5,-1 c 0,2.76 -2.24,5 -5,5 -2.76,0 -5,-2.24 -5,-5 0,-2.76 2.24,-5 5,-5 2.76,0 5,2.24 5,5 z" transform="matrix(0.8,0,0,0.8,5.92,0.8)"/></marker><marker id="marker10347" orient="auto" overflow="visible" refX="0" refY="0"><path id="path10349" fill="#000" fill-opacity="1" fill-rule="evenodd" stroke="#000" stroke-opacity="1" stroke-width="1pt" d="M 0,0 5,-5 -12.5,0 5,5 0,0 Z" transform="matrix(-0.8,0,0,-0.8,-10,0)"/></marker><marker id="marker10337" orient="auto" overflow="visible" refX="0" refY="0"><path id="path10339" fill="#000" fill-opacity="1" fill-rule="evenodd" stroke="#000" stroke-opacity="1" stroke-width="1pt" d="m -2.5,-1 c 0,2.76 -2.24,5 -5,5 -2.76,0 -5,-2.24 -5,-5 0,-2.76 2.24,-5 5,-5 2.76,0 5,2.24 5,5 z" transform="matrix(0.8,0,0,0.8,5.92,0.8)"/></marker><marker id="marker9699" orient="auto" overflow="visible" refX="0" refY="0"><path id="path9701" fill="#000" fill-opacity="1" fill-rule="evenodd" stroke="#000" stroke-opacity="1" stroke-width="1pt" d="M 0,0 5,-5 -12.5,0 5,5 0,0 Z" transform="matrix(-0.8,0,0,-0.8,-10,0)"/></marker><marker id="marker9689" orient="auto" overflow="visible" refX="0" refY="0"><path id="path9691" fill="#000" fill-opacity="1" fill-rule="evenodd" stroke="#000" stroke-opacity="1" stroke-width="1pt" d="m -2.5,-1 c 0,2.76 -2.24,5 -5,5 -2.76,0 -5,-2.24 -5,-5 0,-2.76 2.24,-5 5,-5 2.76,0 5,2.24 5,5 z" transform="matrix(0.8,0,0,0.8,5.92,0.8)"/></marker><marker id="marker9389" orient="auto" overflow="visible" refX="0" refY="0"><path id="path9391" fill="#000" fill-opacity="1" fill-rule="evenodd" stroke="#000" stroke-opacity="1" stroke-width="1pt" d="M 0,0 5,-5 -12.5,0 5,5 0,0 Z" transform="matrix(-0.8,0,0,-0.8,-10,0)"/></marker><marker id="marker9129" orient="auto" overflow="visible" refX="0" refY="0"><path id="path9131" fill="#000" fill-opacity="1" fill-rule="evenodd" stroke="#000" stroke-opacity="1" stroke-width="1pt" d="M 0,0 5,-5 -12.5,0 5,5 0,0 Z" transform="matrix(-0.8,0,0,-0.8,-10,0)"/></marker><marker id="marker9119" orient="auto" overflow="visible" refX="0" refY="0"><path id="path9121" fill="#000" fill-opacity="1" fill-rule="evenodd" stroke="#000" stroke-opacity="1" stroke-width="1pt" d="m -2.5,-1 c 0,2.76 -2.24,5 -5,5 -2.76,0 -5,-2.24 -5,-5 0,-2.76 2.24,-5 5,-5 2.76,0 5,2.24 5,5 z" transform="matrix(0.8,0,0,0.8,5.92,0.8)"/></marker><marker id="marker8020" orient="auto" overflow="visible" refX="0" refY="0"><path id="path8022" fill="#000" fill-opacity="1" fill-rule="evenodd" stroke="#000" stroke-opacity="1" stroke-width="1pt" d="m -2.5,-1 c 0,2.76 -2.24,5 -5,5 -2.76,0 -5,-2.24 -5,-5 0,-2.76 2.24,-5 5,-5 2.76,0 5,2.24 5,5 z" transform="matrix(0.8,0,0,0.8,5.92,0.8)"/></marker><marker id="marker5288" orient="auto" overflow="visible" refX="0" refY="0"><path id="path5290" fill="#000" fill-opacity="1" fill-rule="evenodd" stroke="#000" stroke-opacity="1" stroke-width="1pt" d="M 0,0 5,-5 -12.5,0 5,5 0,0 Z" transform="matrix(-0.8,0,0,-0.8,-10,0)"/></marker><marker id="marker5152" orient="auto" overflow="visible" refX="0" refY="0"><path id="path5154" fill="#000" fill-opacity="1" fill-rule="evenodd" stroke="#000" stroke-opacity="1" stroke-width="1pt" d="m -2.5,-1 c 0,2.76 -2.24,5 -5,5 -2.76,0 -5,-2.24 -5,-5 0,-2.76 2.24,-5 5,-5 2.76,0 5,2.24 5,5 z" transform="matrix(0.8,0,0,0.8,5.92,0.8)"/></marker><marker id="marker4960" orient="auto" overflow="visible" refX="0" refY="0"><path id="path4962" fill="#000" fill-opacity="1" fill-rule="evenodd" stroke="#000" stroke-opacity="1" stroke-width="1pt" d="M 0,0 5,-5 -12.5,0 5,5 0,0 Z" transform="matrix(-0.8,0,0,-0.8,-10,0)"/></marker><marker id="marker4836" orient="auto" overflow="visible" refX="0" refY="0"><path id="path4838" fill="#000" fill-opacity="1" fill-rule="evenodd" stroke="#000" stroke-opacity="1" stroke-width="1pt" d="m -2.5,-1 c 0,2.76 -2.24,5 -5,5 -2.76,0 -5,-2.24 -5,-5 0,-2.76 2.24,-5 5,-5 2.76,0 5,2.24 5,5 z" transform="matrix(0.8,0,0,0.8,5.92,0.8)"/></marker><marker id="marker4682" orient="auto" overflow="visible" refX="0" refY="0"><path id="path4684" fill="#000" fill-opacity="1" fill-rule="evenodd" stroke="#000" stroke-opacity="1" stroke-width="1pt" d="M 0,0 5,-5 -12.5,0 5,5 0,0 Z" transform="matrix(-0.8,0,0,-0.8,-10,0)"/></marker><marker id="marker4570" orient="auto" overflow="visible" refX="0" refY="0"><path id="path4572" fill="#000" fill-opacity="1" fill-rule="evenodd" stroke="#000" stroke-opacity="1" stroke-width="1pt" d="m -2.5,-1 c 0,2.76 -2.24,5 -5,5 -2.76,0 -5,-2.24 -5,-5 0,-2.76 2.24,-5 5,-5 2.76,0 5,2.24 5,5 z" transform="matrix(0.8,0,0,0.8,5.92,0.8)"/></marker><marker id="marker6699" orient="auto" overflow="visible" refX="0" refY="0"><path id="path6701" fill="#000" fill-opacity="1" fill-rule="evenodd" stroke="#000" stroke-opacity="1" stroke-width="1pt" d="M 0,0 5,-5 -12.5,0 5,5 0,0 Z" transform="matrix(-0.8,0,0,-0.8,-10,0)"/></marker><marker id="marker6599" orient="auto" overflow="visible" refX="0" refY="0"><path id="path6601" fill="#000" fill-opacity="1" fill-rule="evenodd" stroke="#000" stroke-opacity="1" stroke-width="1pt" d="m -2.5,-1 c 0,2.76 -2.24,5 -5,5 -2.76,0 -5,-2.24 -5,-5 0,-2.76 2.24,-5 5,-5 2.76,0 5,2.24 5,5 z" transform="matrix(0.8,0,0,0.8,5.92,0.8)"/></marker><marker id="marker6257" orient="auto" overflow="visible" refX="0" refY="0"><path id="path6259" fill="#000" fill-opacity="1" fill-rule="evenodd" stroke="#000" stroke-opacity="1" stroke-width="1pt" d="M 0,0 5,-5 -12.5,0 5,5 0,0 Z" transform="matrix(-0.8,0,0,-0.8,-10,0)"/></marker><marker id="marker6169" orient="auto" overflow="visible" refX="0" refY="0"><path id="path6171" fill="#000" fill-opacity="1" fill-rule="evenodd" stroke="#000" stroke-opacity="1" stroke-width="1pt" d="m -2.5,-1 c 0,2.76 -2.24,5 -5,5 -2.76,0 -5,-2.24 -5,-5 0,-2.76 2.24,-5 5,-5 2.76,0 5,2.24 5,5 z" transform="matrix(0.8,0,0,0.8,5.92,0.8)"/></marker><linearGradient id="linearGradient6085" osb:paint="solid"><stop id="stop6087" offset="0" stop-color="#000" stop-opacity="1"/></linearGradient><marker id="marker5798" orient="auto" overflow="visible" refX="0" refY="0"><path id="path5800" fill="#000" fill-opacity="1" fill-rule="evenodd" stroke="#000" stroke-opacity="1" stroke-width="1pt" d="M 0,0 5,-5 -12.5,0 5,5 0,0 Z" transform="matrix(-0.8,0,0,-0.8,-10,0)"/></marker><marker id="marker5710" orient="auto" overflow="visible" refX="0" refY="0"><path id="path5712" fill="#000" fill-opacity="1" fill-rule="evenodd" stroke="#000" stroke-opacity="1" stroke-width="1pt" d="m -2.5,-1 c 0,2.76 -2.24,5 -5,5 -2.76,0 -5,-2.24 -5,-5 0,-2.76 2.24,-5 5,-5 2.76,0 5,2.24 5,5 z" transform="matrix(0.8,0,0,0.8,5.92,0.8)"/></marker><marker id="marker5530" orient="auto" overflow="visible" refX="0" refY="0"><path id="path5532" fill="#000" fill-opacity="1" fill-rule="evenodd" stroke="#000" stroke-opacity="1" stroke-width="1pt" d="M 0,0 5,-5 -12.5,0 5,5 0,0 Z" transform="matrix(-0.8,0,0,-0.8,-10,0)"/></marker><marker id="marker5454" orient="auto" overflow="visible" refX="0" refY="0"><path id="path5456" fill="#000" fill-opacity="1" fill-rule="evenodd" stroke="#000" stroke-opacity="1" stroke-width="1pt" d="m -2.5,-1 c 0,2.76 -2.24,5 -5,5 -2.76,0 -5,-2.24 -5,-5 0,-2.76 2.24,-5 5,-5 2.76,0 5,2.24 5,5 z" transform="matrix(0.8,0,0,0.8,5.92,0.8)"/></marker><marker id="marker5070" orient="auto" overflow="visible" refX="0" refY="0"><path id="path5072" fill="#000" fill-opacity="1" fill-rule="evenodd" stroke="#000" stroke-opacity="1" stroke-width="1pt" d="M 0,0 5,-5 -12.5,0 5,5 0,0 Z" transform="matrix(-0.8,0,0,-0.8,-10,0)"/></marker><marker id="marker5006" orient="auto" overflow="visible" refX="0" refY="0"><path id="path5008" fill="#000" fill-opacity="1" fill-rule="evenodd" stroke="#000" stroke-opacity="1" stroke-width="1pt" d="m -2.5,-1 c 0,2.76 -2.24,5 -5,5 -2.76,0 -5,-2.24 -5,-5 0,-2.76 2.24,-5 5,-5 2.76,0 5,2.24 5,5 z" transform="matrix(0.8,0,0,0.8,5.92,0.8)"/></marker><marker id="marker4916" orient="auto" overflow="visible" refX="0" refY="0"><path id="path4918" fill="#000" fill-opacity="1" fill-rule="evenodd" stroke="#000" stroke-opacity="1" stroke-width="1pt" d="m -2.5,-1 c 0,2.76 -2.24,5 -5,5 -2.76,0 -5,-2.24 -5,-5 0,-2.76 2.24,-5 5,-5 2.76,0 5,2.24 5,5 z" transform="matrix(0.8,0,0,0.8,5.92,0.8)"/></marker><marker id="DiamondM" orient="auto" overflow="visible" refX="0" refY="0"><path id="path4594" fill="#000" fill-opacity="1" fill-rule="evenodd" stroke="#000" stroke-opacity="1" stroke-width="1pt" d="M 0,-7.0710768 -7.0710894,0 0,7.0710589 7.0710462,0 0,-7.0710768 Z" transform="scale(0.4,0.4)"/></marker><marker id="DotL" orient="auto" overflow="visible" refX="0" refY="0"><path id="path4573" fill="#000" fill-opacity="1" fill-rule="evenodd" stroke="#000" stroke-opacity="1" stroke-width="1pt" d="m -2.5,-1 c 0,2.76 -2.24,5 -5,5 -2.76,0 -5,-2.24 -5,-5 0,-2.76 2.24,-5 5,-5 2.76,0 5,2.24 5,5 z" transform="matrix(0.8,0,0,0.8,5.92,0.8)"/></marker><marker id="marker5142" orient="auto" overflow="visible" refX="0" refY="0"><path id="path5144" fill="#000" fill-opacity="1" fill-rule="evenodd" stroke="#000" stroke-opacity="1" stroke-width="1pt" d="M 0,0 5,-5 -12.5,0 5,5 0,0 Z" transform="matrix(-0.8,0,0,-0.8,-10,0)"/></marker><linearGradient id="linearGradient6474" osb:paint="gradient"><stop id="stop6476" offset="0" stop-color="#000" stop-opacity="1"/><stop id="stop6478" offset="1" stop-color="#000" stop-opacity="0"/></linearGradient><linearGradient id="linearGradient6466"><stop id="stop6468" offset="0" stop-color="#0c0a0c" stop-opacity="1"/><stop id="stop6470" offset="1" stop-color="#0c0a0c" stop-opacity="0"/></linearGradient><linearGradient id="linearGradient6322" osb:paint="solid"><stop id="stop6324" offset="0" stop-color="#000" stop-opacity="1"/></linearGradient><defs id="defs1"><clipPath id="clipPath1" clipPathUnits="userSpaceOnUse"><path id="path9" d="M 0,0 414,0 414,178 0,178 0,0 Z"/></clipPath><clipPath id="clipPath2" clipPathUnits="userSpaceOnUse"><path id="path12" d="m -543,-360 414,0 0,178 -414,0 0,-178 z"/></clipPath></defs><clipPath id="clipPath2-3" clipPathUnits="userSpaceOnUse"><path id="path12-3" d="m -543,-360 414,0 0,178 -414,0 0,-178 z"/></clipPath><clipPath id="clipPath3826" clipPathUnits="userSpaceOnUse"><path id="path3828" d="m -543,-360 414,0 0,178 -414,0 0,-178 z"/></clipPath><clipPath id="clipPath2-4" clipPathUnits="userSpaceOnUse"><path id="path12-7" d="m -543,-360 414,0 0,178 -414,0 0,-178 z"/></clipPath><linearGradient id="linearGradient6472" x1="12.585" x2="27.751" y1="112.62" y2="112.62" gradientUnits="userSpaceOnUse" xlink:href="#linearGradient6466"/><linearGradient id="linearGradient6496" x1="12.585" x2="27.751" y1="112.62" y2="112.62" gradientUnits="userSpaceOnUse" xlink:href="#linearGradient6466"/><linearGradient id="linearGradient6498" x1="12.585" x2="27.751" y1="112.62" y2="112.62" gradientUnits="userSpaceOnUse" xlink:href="#linearGradient6466"/><clipPath id="clipPath2-38" clipPathUnits="userSpaceOnUse"><path id="path12-6" d="m -543,-360 414,0 0,178 -414,0 0,-178 z"/></clipPath><clipPath id="clipPath6727" clipPathUnits="userSpaceOnUse"><path id="path6729" d="m -543,-360 414,0 0,178 -414,0 0,-178 z"/></clipPath><clipPath id="clipPath2-2" clipPathUnits="userSpaceOnUse"><path id="path12-0" d="m -543,-360 414,0 0,178 -414,0 0,-178 z"/></clipPath><clipPath id="clipPath2-8" clipPathUnits="userSpaceOnUse"><path id="path12-62" d="m -543,-360 414,0 0,178 -414,0 0,-178 z"/></clipPath><clipPath id="clipPath6789" clipPathUnits="userSpaceOnUse"><path id="path6791" d="m -543,-360 414,0 0,178 -414,0 0,-178 z"/></clipPath><clipPath id="clipPath2-5" clipPathUnits="userSpaceOnUse"><path id="path12-9" d="m -543,-360 414,0 0,178 -414,0 0,-178 z"/></clipPath><clipPath id="clipPath2-4-9" clipPathUnits="userSpaceOnUse"><path id="path12-7-7" d="m -543,-360 414,0 0,178 -414,0 0,-178 z"/></clipPath><clipPath id="clipPath2-3-7" clipPathUnits="userSpaceOnUse"><path id="path12-3-5" d="m -543,-360 414,0 0,178 -414,0 0,-178 z"/></clipPath><clipPath id="clipPath3075" clipPathUnits="userSpaceOnUse"><path id="path3077" d="m -543,-360 414,0 0,178 -414,0 0,-178 z"/></clipPath><clipPath id="clipPath2-44" clipPathUnits="userSpaceOnUse"><path id="path12-65" d="m -543,-360 414,0 0,178 -414,0 0,-178 z"/></clipPath><clipPath id="clipPath3081" clipPathUnits="userSpaceOnUse"><path id="path3083" d="m -543,-360 414,0 0,178 -414,0 0,-178 z"/></clipPath><clipPath id="clipPath3085" clipPathUnits="userSpaceOnUse"><path id="path3087" d="m -543,-360 414,0 0,178 -414,0 0,-178 z"/></clipPath><clipPath id="clipPath3089" clipPathUnits="userSpaceOnUse"><path id="path3091" d="m -543,-360 414,0 0,178 -414,0 0,-178 z"/></clipPath><clipPath id="clipPath3093" clipPathUnits="userSpaceOnUse"><path id="path3095" d="m -543,-360 414,0 0,178 -414,0 0,-178 z"/></clipPath><clipPath id="clipPath3097" clipPathUnits="userSpaceOnUse"><path id="path3099" d="m -543,-360 414,0 0,178 -414,0 0,-178 z"/></clipPath><clipPath id="clipPath3101" clipPathUnits="userSpaceOnUse"><path id="path3103" d="m -543,-360 414,0 0,178 -414,0 0,-178 z"/></clipPath><clipPath id="clipPath3105" clipPathUnits="userSpaceOnUse"><path id="path3107" d="m -543,-360 414,0 0,178 -414,0 0,-178 z"/></clipPath><clipPath id="clipPath3109" clipPathUnits="userSpaceOnUse"><path id="path3111" d="m -543,-360 414,0 0,178 -414,0 0,-178 z"/></clipPath><clipPath id="clipPath3113" clipPathUnits="userSpaceOnUse"><path id="path3115" d="m -543,-360 414,0 0,178 -414,0 0,-178 z"/></clipPath><clipPath id="clipPath3117" clipPathUnits="userSpaceOnUse"><path id="path3119" d="m -543,-360 414,0 0,178 -414,0 0,-178 z"/></clipPath><clipPath id="clipPath3121" clipPathUnits="userSpaceOnUse"><path id="path3123" d="m -543,-360 414,0 0,178 -414,0 0,-178 z"/></clipPath><clipPath id="clipPath3125" clipPathUnits="userSpaceOnUse"><path id="path3127" d="m -543,-360 414,0 0,178 -414,0 0,-178 z"/></clipPath><clipPath id="clipPath3129" clipPathUnits="userSpaceOnUse"><path id="path3131" d="m -543,-360 414,0 0,178 -414,0 0,-178 z"/></clipPath><clipPath id="clipPath3133" clipPathUnits="userSpaceOnUse"><path id="path3135" d="m -543,-360 414,0 0,178 -414,0 0,-178 z"/></clipPath><clipPath id="clipPath3137" clipPathUnits="userSpaceOnUse"><path id="path3139" d="m -543,-360 414,0 0,178 -414,0 0,-178 z"/></clipPath><clipPath id="clipPath3141" clipPathUnits="userSpaceOnUse"><path id="path3143" d="m -543,-360 414,0 0,178 -414,0 0,-178 z"/></clipPath><clipPath id="clipPath3145" clipPathUnits="userSpaceOnUse"><path id="path3147" d="m -543,-360 414,0 0,178 -414,0 0,-178 z"/></clipPath><clipPath id="clipPath3149" clipPathUnits="userSpaceOnUse"><path id="path3151" d="m -543,-360 414,0 0,178 -414,0 0,-178 z"/></clipPath><clipPath id="clipPath3153" clipPathUnits="userSpaceOnUse"><path id="path3155" d="m -543,-360 414,0 0,178 -414,0 0,-178 z"/></clipPath><clipPath id="clipPath3157" clipPathUnits="userSpaceOnUse"><path id="path3159" d="m -543,-360 414,0 0,178 -414,0 0,-178 z"/></clipPath><clipPath id="clipPath3161" clipPathUnits="userSpaceOnUse"><path id="path3163" d="m -543,-360 414,0 0,178 -414,0 0,-178 z"/></clipPath><clipPath id="clipPath2-4-93" clipPathUnits="userSpaceOnUse"><path id="path12-7-3" d="m -543,-360 414,0 0,178 -414,0 0,-178 z"/></clipPath><clipPath id="clipPath2-3-8" clipPathUnits="userSpaceOnUse"><path id="path12-3-0" d="m -543,-360 414,0 0,178 -414,0 0,-178 z"/></clipPath><clipPath id="clipPath3221" clipPathUnits="userSpaceOnUse"><path id="path3223" d="m -543,-360 414,0 0,178 -414,0 0,-178 z"/></clipPath><clipPath id="clipPath2-56" clipPathUnits="userSpaceOnUse"><path id="path12-64" d="m -543,-360 414,0 0,178 -414,0 0,-178 z"/></clipPath><clipPath id="clipPath3227" clipPathUnits="userSpaceOnUse"><path id="path3229" d="m -543,-360 414,0 0,178 -414,0 0,-178 z"/></clipPath><clipPath id="clipPath3231" clipPathUnits="userSpaceOnUse"><path id="path3233" d="m -543,-360 414,0 0,178 -414,0 0,-178 z"/></clipPath><clipPath id="clipPath3235" clipPathUnits="userSpaceOnUse"><path id="path3237" d="m -543,-360 414,0 0,178 -414,0 0,-178 z"/></clipPath><clipPath id="clipPath3239" clipPathUnits="userSpaceOnUse"><path id="path3241" d="m -543,-360 414,0 0,178 -414,0 0,-178 z"/></clipPath><clipPath id="clipPath3243" clipPathUnits="userSpaceOnUse"><path id="path3245" d="m -543,-360 414,0 0,178 -414,0 0,-178 z"/></clipPath><clipPath id="clipPath3247" clipPathUnits="userSpaceOnUse"><path id="path3249" d="m -543,-360 414,0 0,178 -414,0 0,-178 z"/></clipPath><clipPath id="clipPath3251" clipPathUnits="userSpaceOnUse"><path id="path3253" d="m -543,-360 414,0 0,178 -414,0 0,-178 z"/></clipPath><clipPath id="clipPath3255" clipPathUnits="userSpaceOnUse"><path id="path3257" d="m -543,-360 414,0 0,178 -414,0 0,-178 z"/></clipPath><clipPath id="clipPath3259" clipPathUnits="userSpaceOnUse"><path id="path3261" d="m -543,-360 414,0 0,178 -414,0 0,-178 z"/></clipPath><clipPath id="clipPath3263" clipPathUnits="userSpaceOnUse"><path id="path3265" d="m -543,-360 414,0 0,178 -414,0 0,-178 z"/></clipPath><clipPath id="clipPath3267" clipPathUnits="userSpaceOnUse"><path id="path3269" d="m -543,-360 414,0 0,178 -414,0 0,-178 z"/></clipPath><clipPath id="clipPath3271" clipPathUnits="userSpaceOnUse"><path id="path3273" d="m -543,-360 414,0 0,178 -414,0 0,-178 z"/></clipPath><clipPath id="clipPath3275" clipPathUnits="userSpaceOnUse"><path id="path3277" d="m -543,-360 414,0 0,178 -414,0 0,-178 z"/></clipPath><clipPath id="clipPath3279" clipPathUnits="userSpaceOnUse"><path id="path3281" d="m -543,-360 414,0 0,178 -414,0 0,-178 z"/></clipPath><clipPath id="clipPath3283" clipPathUnits="userSpaceOnUse"><path id="path3285" d="m -543,-360 414,0 0,178 -414,0 0,-178 z"/></clipPath><clipPath id="clipPath3287" clipPathUnits="userSpaceOnUse"><path id="path3289" d="m -543,-360 414,0 0,178 -414,0 0,-178 z"/></clipPath><clipPath id="clipPath3291" clipPathUnits="userSpaceOnUse"><path id="path3293" d="m -543,-360 414,0 0,178 -414,0 0,-178 z"/></clipPath><clipPath id="clipPath3295" clipPathUnits="userSpaceOnUse"><path id="path3297" d="m -543,-360 414,0 0,178 -414,0 0,-178 z"/></clipPath><clipPath id="clipPath3299" clipPathUnits="userSpaceOnUse"><path id="path3301" d="m -543,-360 414,0 0,178 -414,0 0,-178 z"/></clipPath><clipPath id="clipPath3303" clipPathUnits="userSpaceOnUse"><path id="path3305" d="m -543,-360 414,0 0,178 -414,0 0,-178 z"/></clipPath><clipPath id="clipPath3307" clipPathUnits="userSpaceOnUse"><path id="path3309" d="m -543,-360 414,0 0,178 -414,0 0,-178 z"/></clipPath><clipPath id="clipPath2-4-4" clipPathUnits="userSpaceOnUse"><path id="path12-7-79" d="m -543,-360 414,0 0,178 -414,0 0,-178 z"/></clipPath><clipPath id="clipPath2-3-3" clipPathUnits="userSpaceOnUse"><path id="path12-3-9" d="m -543,-360 414,0 0,178 -414,0 0,-178 z"/></clipPath><clipPath id="clipPath3393" clipPathUnits="userSpaceOnUse"><path id="path3395" d="m -543,-360 414,0 0,178 -414,0 0,-178 z"/></clipPath><clipPath id="clipPath2-56-8" clipPathUnits="userSpaceOnUse"><path id="path12-64-8" d="m -543,-360 414,0 0,178 -414,0 0,-178 z"/></clipPath><marker id="Arrow1Lend-5" orient="auto" overflow="visible" refX="0" refY="0"><path id="path4598-5" fill="#000" fill-opacity="1" fill-rule="evenodd" stroke="#000" stroke-opacity="1" stroke-width="1pt" d="M 0,0 5,-5 -12.5,0 5,5 0,0 Z" transform="matrix(-0.8,0,0,-0.8,-10,0)"/></marker><marker id="marker4879-0" orient="auto" overflow="visible" refX="0" refY="0"><path id="path4881-2" fill="#000" fill-opacity="1" fill-rule="evenodd" stroke="#000" stroke-opacity="1" stroke-width="1pt" d="M 0,0 5,-5 -12.5,0 5,5 0,0 Z" transform="matrix(-0.8,0,0,-0.8,-10,0)"/></marker><marker id="marker5152-4" orient="auto" overflow="visible" refX="0" refY="0"><path id="path5154-5" fill="#000" fill-opacity="1" fill-rule="evenodd" stroke="#000" stroke-opacity="1" stroke-width="1pt" d="m -2.5,-1 c 0,2.76 -2.24,5 -5,5 -2.76,0 -5,-2.24 -5,-5 0,-2.76 2.24,-5 5,-5 2.76,0 5,2.24 5,5 z" transform="matrix(0.8,0,0,0.8,5.92,0.8)"/></marker><marker id="marker5288-2" orient="auto" overflow="visible" refX="0" refY="0"><path id="path5290-2" fill="#000" fill-opacity="1" fill-rule="evenodd" stroke="#000" stroke-opacity="1" stroke-width="1pt" d="M 0,0 5,-5 -12.5,0 5,5 0,0 Z" transform="matrix(-0.8,0,0,-0.8,-10,0)"/></marker><marker id="marker5152-2-6" orient="auto" overflow="visible" refX="0" refY="0"><path id="path5154-54-4" fill="#000" fill-opacity="1" fill-rule="evenodd" stroke="#000" stroke-opacity="1" stroke-width="1pt" d="m -2.5,-1 c 0,2.76 -2.24,5 -5,5 -2.76,0 -5,-2.24 -5,-5 0,-2.76 2.24,-5 5,-5 2.76,0 5,2.24 5,5 z" transform="matrix(0.8,0,0,0.8,5.92,0.8)"/></marker><marker id="marker5288-1-2" orient="auto" overflow="visible" refX="0" refY="0"><path id="path5290-9-8" fill="#000" fill-opacity="1" fill-rule="evenodd" stroke="#000" stroke-opacity="1" stroke-width="1pt" d="M 0,0 5,-5 -12.5,0 5,5 0,0 Z" transform="matrix(-0.8,0,0,-0.8,-10,0)"/></marker><marker id="marker7211-2" orient="auto" overflow="visible" refX="0" refY="0"><path id="path7213-4" fill="#000" fill-opacity="1" fill-rule="evenodd" stroke="#000" stroke-opacity="1" stroke-width="1pt" d="m -2.5,-1 c 0,2.76 -2.24,5 -5,5 -2.76,0 -5,-2.24 -5,-5 0,-2.76 2.24,-5 5,-5 2.76,0 5,2.24 5,5 z" transform="matrix(0.8,0,0,0.8,5.92,0.8)"/></marker><marker id="marker7395-0" orient="auto" overflow="visible" refX="0" refY="0"><path id="path7397-1" fill="#000" fill-opacity="1" fill-rule="evenodd" stroke="#000" stroke-opacity="1" stroke-width="1pt" d="M 0,0 5,-5 -12.5,0 5,5 0,0 Z" transform="matrix(-0.8,0,0,-0.8,-10,0)"/></marker></defs><g id="g6521" fill="#000" fill-opacity="1" stroke="#000" stroke-dasharray="none" stroke-dashoffset="0" stroke-linecap="square" stroke-linejoin="miter" stroke-miterlimit="10" stroke-opacity="1" stroke-width="1" color-interpolation="auto" color-rendering="auto" font-family="Dialog" font-size="12" font-style="normal" font-weight="normal" image-rendering="auto" shape-rendering="auto" text-rendering="auto" transform="translate(-109.3019,-64.109996)"><rect id="rect6523" width="38.826" height="27.826" x="142.312" y="64.789" fill="#ff823f" fill-opacity="1" stroke="#000" stroke-linecap="round" stroke-linejoin="round" stroke-width="1.174" display="inline"/></g><g id="g6531" fill="#000" fill-opacity="1" stroke="#000" stroke-dasharray="none" stroke-dashoffset="0" stroke-linecap="square" stroke-linejoin="miter" stroke-miterlimit="10" stroke-opacity="1" stroke-width="1" color-interpolation="auto" color-rendering="auto" font-family="Dialog" font-size="12" font-style="normal" font-weight="normal" image-rendering="auto" shape-rendering="auto" text-rendering="auto" transform="translate(70.698116,-64.201336)"><rect id="rect6533" width="38.826" height="27.826" x="142.312" y="64.789" fill="#fc9" fill-opacity="1" stroke="#000" stroke-linecap="round" stroke-linejoin="round" stroke-width="1.174" display="inline"/><rect id="rect6535" width="16.22" height="27.826" x="181.168" y="64.788" fill="#ff823f" fill-opacity="1" stroke="#000" stroke-linecap="round" stroke-linejoin="round" stroke-width="1.174" display="inline"/></g><path id="path6537" fill="none" fill-opacity="1" fill-rule="evenodd" stroke="#000" stroke-dasharray="none" stroke-dashoffset="0" stroke-linecap="butt" stroke-linejoin="miter" stroke-miterlimit="10" stroke-opacity="1" stroke-width="1" marker-end="url(#Arrow1Lend-5)" marker-start="url(#DotL)" d="M 51.790146,14.646844 120.6427,14.536034" color-interpolation="auto" color-rendering="auto" font-family="Dialog" font-size="12" font-style="normal" font-weight="normal" image-rendering="auto" shape-rendering="auto" text-rendering="auto"/><g id="g4543" fill="#000" fill-opacity="1" stroke="#000" stroke-dasharray="none" stroke-dashoffset="0" stroke-linecap="square" stroke-linejoin="miter" stroke-miterlimit="10" stroke-opacity="1" stroke-width="1" color-interpolation="auto" color-rendering="auto" font-family="Dialog" font-size="12" font-style="normal" font-weight="normal" image-rendering="auto" shape-rendering="auto" text-rendering="auto" transform="translate(-19.301884,-64.201336)"><rect id="rect4545" width="38.826" height="27.826" x="142.312" y="64.789" fill="#fc9" fill-opacity="1" stroke="#000" stroke-linecap="round" stroke-linejoin="round" stroke-width="1.174" display="inline"/><rect id="rect4547" width="16.22" height="27.826" x="181.168" y="64.788" fill="#ff823f" fill-opacity="1" stroke="#000" stroke-linecap="round" stroke-linejoin="round" stroke-width="1.174" display="inline"/></g><path id="path6539" fill="none" fill-opacity="1" fill-rule="evenodd" stroke="#000" stroke-dasharray="none" stroke-dashoffset="0" stroke-linecap="butt" stroke-linejoin="miter" stroke-miterlimit="10" stroke-opacity="1" stroke-width="1" marker-end="url(#marker5288)" marker-start="url(#marker5152)" d="m 170.27195,14.646844 40.48424,-0.11081" color-interpolation="auto" color-rendering="auto" font-family="Dialog" font-size="12" font-style="normal" font-weight="normal" image-rendering="auto" shape-rendering="auto" text-rendering="auto"/><path id="path6541" fill="none" fill-opacity="1" fill-rule="evenodd" stroke="#000" stroke-dasharray="none" stroke-dashoffset="0" stroke-linecap="butt" stroke-linejoin="miter" stroke-miterlimit="10" stroke-opacity="1" stroke-width="1" marker-end="url(#marker5070)" marker-start="url(#marker5006)" d="m 260.38546,14.646844 40.48424,-0.11081" color-interpolation="auto" color-rendering="auto" font-family="Dialog" font-size="12" font-style="normal" font-weight="normal" image-rendering="auto" shape-rendering="auto" text-rendering="auto"/><path id="path6579" fill="none" fill-opacity="1" fill-rule="evenodd" stroke="#000" stroke-dasharray="none" stroke-dashoffset="0" stroke-linecap="butt" stroke-linejoin="miter" stroke-miterlimit="10" stroke-opacity="1" stroke-width="1" marker-end="url(#marker4682)" marker-start="url(#marker4570)" d="m 350.38546,14.646844 40.48424,-0.11081" color-interpolation="auto" color-rendering="auto" font-family="Dialog" font-size="12" font-style="normal" font-weight="normal" image-rendering="auto" shape-rendering="auto" text-rendering="auto"/><g id="g4812" fill="#000" fill-opacity="1" stroke="#000" stroke-dasharray="none" stroke-dashoffset="0" stroke-linecap="square" stroke-linejoin="miter" stroke-miterlimit="10" stroke-opacity="1" stroke-width="1" color-interpolation="auto" color-rendering="auto" font-family="Dialog" font-size="12" font-style="normal" font-weight="normal" image-rendering="auto" shape-rendering="auto" text-rendering="auto" transform="translate(340.69813,-64.201336)"><rect id="rect4814" width="38.826" height="27.826" x="142.312" y="64.789" fill="#fc9" fill-opacity="1" stroke="#000" stroke-linecap="round" stroke-linejoin="round" stroke-width="1.174" display="inline"/><rect id="rect4816" width="16.22" height="27.826" x="181.168" y="64.788" fill="#ff823f" fill-opacity="1" stroke="#000" stroke-linecap="round" stroke-linejoin="round" stroke-width="1.174" display="inline"/></g><g id="g4818" fill="#000" fill-opacity="1" stroke="#000" stroke-dasharray="none" stroke-dashoffset="0" stroke-linecap="square" stroke-linejoin="miter" stroke-miterlimit="10" stroke-opacity="1" stroke-width="1" color-interpolation="auto" color-rendering="auto" font-family="Dialog" font-size="12" font-style="normal" font-weight="normal" image-rendering="auto" shape-rendering="auto" text-rendering="auto" transform="translate(250.69813,-64.201336)"><rect id="rect4820" width="38.826" height="27.826" x="142.312" y="64.789" fill="#fc9" fill-opacity="1" stroke="#000" stroke-linecap="round" stroke-linejoin="round" stroke-width="1.174" display="inline"/><rect id="rect4822" width="16.22" height="27.826" x="181.168" y="64.788" fill="#ff823f" fill-opacity="1" stroke="#000" stroke-linecap="round" stroke-linejoin="round" stroke-width="1.174" display="inline"/></g><path id="path4824" fill="none" fill-opacity="1" fill-rule="evenodd" stroke="#000" stroke-dasharray="none" stroke-dashoffset="0" stroke-linecap="butt" stroke-linejoin="miter" stroke-miterlimit="10" stroke-opacity="1" stroke-width="1" marker-end="url(#marker4879-0)" marker-start="url(#marker4916)" d="m 440.27195,14.646844 40.48424,-0.11081" color-interpolation="auto" color-rendering="auto" font-family="Dialog" font-size="12" font-style="normal" font-weight="normal" image-rendering="auto" shape-rendering="auto" text-rendering="auto"/><path id="path4826" fill="none" fill-opacity="1" fill-rule="evenodd" stroke="#000" stroke-dasharray="none" stroke-dashoffset="0" stroke-linecap="butt" stroke-linejoin="miter" stroke-miterlimit="10" stroke-opacity="1" stroke-width="1" marker-end="url(#marker5070)" marker-start="url(#marker5006)" d="m 530.38546,14.646844 40.48424,-0.11081" color-interpolation="auto" color-rendering="auto" font-family="Dialog" font-size="12" font-style="normal" font-weight="normal" image-rendering="auto" shape-rendering="auto" text-rendering="auto"/><g id="g4828" fill="#000" fill-opacity="1" stroke="#000" stroke-dasharray="none" stroke-dashoffset="0" stroke-linecap="square" stroke-linejoin="miter" stroke-miterlimit="10" stroke-opacity="1" stroke-width="1" color-interpolation="auto" color-rendering="auto" font-family="Dialog" font-size="12" font-style="normal" font-weight="normal" image-rendering="auto" shape-rendering="auto" text-rendering="auto" transform="translate(430.69812,-64.201336)"><rect id="rect4830" width="38.826" height="27.826" x="142.312" y="64.789" fill="#fc9" fill-opacity="1" stroke="#000" stroke-linecap="round" stroke-linejoin="round" stroke-width="1.174" display="inline"/><rect id="rect4832" width="16.22" height="27.826" x="181.168" y="64.788" fill="#ff823f" fill-opacity="1" stroke="#000" stroke-linecap="round" stroke-linejoin="round" stroke-width="1.174" display="inline"/></g><path id="path5971" fill="none" fill-rule="evenodd" stroke="#000" stroke-linecap="butt" stroke-linejoin="miter" stroke-opacity="1" stroke-width="1" d="M 627.88103,0.69780427 612.14548,28.179604"/><text id="text3639-4" x="-1.34" y="21.266" fill="#000" fill-opacity="1" stroke="none" stroke-dasharray="none" stroke-dashoffset="0" stroke-linecap="square" stroke-linejoin="miter" stroke-miterlimit="10" stroke-opacity="1" stroke-width="1" color-interpolation="auto" color-rendering="auto" font-family="Arial" font-size="9.854" font-stretch="normal" font-style="normal" font-variant="normal" font-weight="normal" image-rendering="auto" shape-rendering="auto" text-anchor="start" text-rendering="auto" transform="scale(1.0007779,0.9992227)" writing-mode="lr-tb" xml:space="preserve" style="line-height:100%;-inkscape-font-specification:Arial;text-align:start"><tspan style="-inkscape-font-specification:courier" id="tspan3641-9" x="-1.34" y="21.266" font-family="courier" font-size="22.5" font-stretch="normal" font-style="normal" font-variant="normal" font-weight="bold">P</tspan></text><text id="text6581" x="312.253" y="16.5" fill="#000" fill-opacity="1" stroke="none" stroke-dasharray="none" stroke-dashoffset="0" stroke-linecap="square" stroke-linejoin="miter" stroke-miterlimit="10" stroke-opacity="1" stroke-width="1" color-interpolation="auto" color-rendering="auto" font-family="Arial" font-size="9.854" font-stretch="normal" font-style="normal" font-variant="normal" font-weight="normal" image-rendering="auto" shape-rendering="auto" text-anchor="start" text-rendering="auto" transform="scale(1.0007779,0.9992227)" writing-mode="lr-tb" xml:space="preserve" style="line-height:100%;-inkscape-font-specification:Arial;text-align:start"><tspan id="tspan6583" x="312.253" y="16.5" font-size="27.5">...</tspan></text></svg>